<?xml version="1.0" encoding="UTF-8"?>
<svg version="1.1" xmlns="http://www.w3.org/2000/svg" width="1802" height="919">
<path d="M0 0 C0.76828125 0.65871094 1.5365625 1.31742188 2.328125 1.99609375 C4.93190708 4.2849022 7.47273801 6.62688307 10 9 C10.52609863 9.49209961 11.05219727 9.98419922 11.59423828 10.49121094 C45.41447389 42.38751169 68.75120838 89.31723588 71.10643005 136.11473083 C71.1624917 138.22798128 71.19018473 140.33917644 71.203125 142.453125 C71.21013931 143.22728256 71.21715363 144.00144012 71.22438049 144.79905701 C71.24177517 147.28276466 71.24823249 149.76623367 71.25 152.25 C71.25067474 153.09970367 71.25134949 153.94940735 71.25204468 154.82485962 C71.2357336 167.75466228 70.81326606 180.32941968 68 193 C67.82307617 193.79809082 67.64615234 194.59618164 67.46386719 195.41845703 C66.17908134 201.00916158 64.66861845 206.51241966 63 212 C62.79036621 212.69480469 62.58073242 213.38960938 62.36474609 214.10546875 C53.2529219 243.56633218 36.63841663 269.3188732 16 292 C20.70297426 301.82641311 25.95078804 311.18770048 31.53417969 320.53466797 C34.27986851 325.15258365 36.98191236 329.79601451 39.6875 334.4375 C40.27732666 335.4486084 40.86715332 336.4597168 41.47485352 337.50146484 C46.46716562 346.06756718 51.42310883 354.65442406 56.36914062 363.24731445 C59.53363107 368.74094592 62.71186658 374.22584441 65.91796875 379.6953125 C66.55089844 380.77554687 67.18382812 381.85578125 67.8359375 382.96875 C69.03289825 385.0091388 70.23197291 387.04828963 71.43359375 389.0859375 C71.975 390.00890625 72.51640625 390.931875 73.07421875 391.8828125 C73.54432373 392.68090332 74.01442871 393.47899414 74.4987793 394.30126953 C76.45072569 397.81026537 78.22830737 401.39737509 80 405 C45.83075439 408.77240079 45.83075439 408.77240079 36.95703125 403.03125 C32.17456599 397.62280761 29.76474042 391.09379293 27.32666016 384.37792969 C25.1857563 378.92678031 22.11866551 374.10187486 19.0625 369.125 C17.89960151 367.14375341 16.74209604 365.15933208 15.58984375 363.171875 C15.00702637 362.17091797 14.42420898 361.16996094 13.82373047 360.13867188 C5.48881909 345.79414435 -2.79434039 331.41889069 -11 317 C-15.11974524 317.64243552 -18.2893851 319.8875903 -21.75 322.0625 C-65.71455162 348.98418941 -119.23407728 359.6165015 -169.9296875 347.8984375 C-170.62046387 347.72747559 -171.31124023 347.55651367 -172.02294922 347.38037109 C-174.31910913 346.87404777 -174.31910913 346.87404777 -178 347 C-178.57161865 347.99290039 -178.57161865 347.99290039 -179.15478516 349.00585938 C-186.28800617 361.39255806 -193.43241656 373.77264648 -200.625 386.125 C-201.1917041 387.10017578 -201.7584082 388.07535156 -202.34228516 389.08007812 C-202.88159668 390.00498047 -203.4209082 390.92988281 -203.9765625 391.8828125 C-204.44143066 392.68090332 -204.90629883 393.47899414 -205.38525391 394.30126953 C-205.91812012 395.19185059 -206.45098633 396.08243164 -207 397 C-207.3196019 397.68346497 -207.6392038 398.36692993 -207.9684906 399.07110596 C-210.80127423 404.58886648 -210.80127423 404.58886648 -214.02667236 405.69509888 C-216.54078098 405.92757353 -218.93502973 405.90080447 -221.45703125 405.78125 C-222.35999435 405.76993042 -223.26295746 405.75861084 -224.19328308 405.74694824 C-227.06854311 405.70227241 -229.93875647 405.6019382 -232.8125 405.5 C-234.76490176 405.45986109 -236.71738196 405.42336102 -238.66992188 405.390625 C-243.44854976 405.30256691 -248.22342041 405.16458958 -253 405 C-251.78456482 401.05421868 -250.37761298 397.62493275 -248.26953125 394.078125 C-247.72167969 393.14871094 -247.17382812 392.21929687 -246.609375 391.26171875 C-246.01640625 390.26785156 -245.4234375 389.27398437 -244.8125 388.25 C-243.53707902 386.08894367 -242.26236327 383.927471 -240.98828125 381.765625 C-240.32908691 380.64994141 -239.66989258 379.53425781 -238.99072266 378.38476562 C-235.79082706 372.94407975 -232.64631769 367.47178526 -229.5 362 C-224.12163189 352.66092579 -218.70740261 343.34359183 -213.26953125 334.0390625 C-208.98777878 326.70716277 -204.73789061 319.35732762 -200.5 312 C-195.1208592 302.66136793 -189.70740553 293.34359683 -184.26953125 284.0390625 C-179.98777878 276.70716277 -175.73789061 269.35732762 -171.5 262 C-166.12462401 252.66790395 -160.71593364 243.35607732 -155.28051758 234.05883789 C-150.88595557 226.53567026 -146.53259946 218.98932095 -142.1875 211.4375 C-136.88891304 202.23150293 -131.52428481 193.07240269 -126 184 C-121.897576 185.36747467 -121.41411616 187.27607472 -119.3125 191.01171875 C-118.96872314 191.61756302 -118.62494629 192.22340729 -118.27075195 192.84761047 C-117.17185184 194.7895048 -116.08602363 196.73838098 -115 198.6875 C-114.269037 199.98157643 -113.53727491 201.27520184 -112.8046875 202.56835938 C-110.84855913 206.0342425 -108.90316529 209.50462174 -107 213 C-106.38648682 214.02923584 -105.77297363 215.05847168 -105.14086914 216.11889648 C-104 219 -104 219 -104.63061523 221.41162109 C-105.10184814 222.19102051 -105.57308105 222.97041992 -106.05859375 223.7734375 C-106.58243652 224.66780518 -107.1062793 225.56217285 -107.64599609 226.48364258 C-108.23719238 227.43779053 -108.82838867 228.39193848 -109.4375 229.375 C-110.03643066 230.38522217 -110.63536133 231.39544434 -111.25244141 232.4362793 C-112.51825679 234.56886366 -113.79389438 236.69564442 -115.07861328 238.81689453 C-117.48741772 242.80749075 -119.82805146 246.83544915 -122.16625977 250.86767578 C-123.9027294 253.86028855 -125.6496093 256.84662624 -127.3984375 259.83203125 C-131.12630808 266.20565159 -134.81535013 272.60132351 -138.5 279 C-143.58413726 287.82421521 -148.6853483 296.63819911 -153.8125 305.4375 C-154.40546875 306.45650391 -154.9984375 307.47550781 -155.609375 308.52539062 C-156.43115234 309.93401367 -156.43115234 309.93401367 -157.26953125 311.37109375 C-157.75010986 312.19536865 -158.23068848 313.01964355 -158.72583008 313.86889648 C-159.76699718 315.61029285 -160.87456125 317.31184188 -162 319 C-150.44112995 321.39167822 -139.42116674 322.50437166 -127.625 322.375 C-126.86241882 322.37034729 -126.09983765 322.36569458 -125.31414795 322.36090088 C-113.66392433 322.27780457 -102.35289092 321.7838219 -91 319 C-89.75404053 318.70198486 -89.75404053 318.70198486 -88.48291016 318.39794922 C-75.6953496 315.25346711 -63.80143707 310.81471841 -52 305 C-51.33774414 304.67773438 -50.67548828 304.35546875 -49.99316406 304.0234375 C-11.05536205 284.87561282 18.62763552 249.75619303 33 209 C36.55016039 197.92388653 39.6316879 186.56845683 41 175 C41.10957031 174.21238281 41.21914062 173.42476562 41.33203125 172.61328125 C46.27774113 130.60771866 34.39516137 84.93236588 8.61083984 51.18164062 C5.53101822 47.3422504 2.28194882 43.66689921 -1 40 C-1.72316406 39.15566406 -2.44632813 38.31132813 -3.19140625 37.44140625 C-7.45560497 32.49293298 -11.93210345 28.11820554 -17 24 C-18.36705078 22.87658203 -18.36705078 22.87658203 -19.76171875 21.73046875 C-56.00138088 -7.14303872 -100.40035139 -19.69048935 -146.46630859 -15.69970703 C-184.08761356 -11.19570758 -217.59141236 5.08100951 -245 31 C-245.93328125 31.85722656 -246.8665625 32.71445313 -247.828125 33.59765625 C-278.76612582 62.68213433 -295.55538977 106.24794708 -297.203125 148.16796875 C-297.76927035 177.3875595 -291.16766611 205.91377397 -277.62768555 231.77416992 C-274.27635485 238.19198059 -274.27635485 238.19198059 -274 241 C-275.17163086 243.74902344 -275.17163086 243.74902344 -276.96484375 246.859375 C-277.91713867 248.53193359 -277.91713867 248.53193359 -278.88867188 250.23828125 C-279.57135026 251.40900834 -280.25429644 252.57957931 -280.9375 253.75 C-281.61766323 254.93555219 -282.29671337 256.12174371 -282.97460938 257.30859375 C-284.6388797 260.21221432 -286.31430103 263.10878427 -288 266 C-289.32 266 -290.64 266 -292 266 C-293.64321117 263.82243632 -294.93722234 261.80554558 -296.25 259.4375 C-296.63986084 258.7563916 -297.02972168 258.0752832 -297.43139648 257.37353516 C-298.2408724 255.95002495 -299.04278705 254.52219065 -299.83740234 253.09033203 C-300.89886017 251.1818478 -301.98632883 249.29128633 -303.08203125 247.40234375 C-328.07851674 203.45967236 -332.54541223 148.2222591 -319.67626953 99.82470703 C-307.47251092 56.89738717 -281.30020997 18.19487955 -245 -8 C-244.42878418 -8.41556152 -243.85756836 -8.83112305 -243.26904297 -9.25927734 C-171.41480414 -60.9290622 -67.46856156 -58.25742816 0 0 Z " fill="#CDD2D6" transform="translate(1034,46)"/>
<path d="M0 0 C42.3534375 -0.12375 42.3534375 -0.12375 85.5625 -0.25 C98.90538452 -0.30462402 98.90538452 -0.30462402 112.51782227 -0.36035156 C123.43151855 -0.37841797 123.43151855 -0.37841797 128.55064392 -0.3817749 C132.10425431 -0.38548165 135.65762247 -0.40039147 139.21116638 -0.42230225 C143.76031907 -0.44997523 148.3091254 -0.4579215 152.85835445 -0.4522891 C154.51766305 -0.45346484 156.17698522 -0.46125594 157.83622086 -0.47686052 C177.84038952 -0.65607682 194.74635788 4.47972631 210 18 C210.61359375 18.51949219 211.2271875 19.03898438 211.859375 19.57421875 C223.04919871 29.76311786 231.2702426 46.14450457 232.13142776 61.31524754 C232.13588976 62.51278361 232.13588976 62.51278361 232.14044189 63.73451233 C232.14615204 64.65801483 232.15186218 65.58151733 232.15774536 66.53300476 C232.15942215 68.03465935 232.15942215 68.03465935 232.16113281 69.56665039 C232.16609772 70.63075134 232.17106262 71.69485229 232.17617798 72.79119873 C232.19077609 76.31002451 232.19759889 79.82880516 232.203125 83.34765625 C232.20887983 85.80040996 232.21463752 88.25316366 232.22039795 90.70591736 C232.23090225 95.85139169 232.23674819 100.99685044 232.24023438 106.14233398 C232.24570785 112.71353907 232.26971397 119.28453578 232.29820633 125.8556757 C232.31689748 130.92511075 232.32204183 135.99449635 232.32357025 141.06396294 C232.32658434 143.4850929 232.33457052 145.90622225 232.34775543 148.32731819 C232.36494591 151.72756565 232.36290354 155.12731377 232.35644531 158.52758789 C232.3656601 159.51452133 232.37487488 160.50145477 232.3843689 161.51829529 C232.32506032 171.56332414 230.05276822 181.06756219 225.4375 190 C225.09235352 190.67297119 224.74720703 191.34594238 224.39160156 192.03930664 C215.38748599 208.90901739 200.86254576 220.1014476 182.78561306 226.05943108 C178.8828291 227.02911214 175.31254156 227.27468219 171.32472229 227.24050903 C170.58547516 227.24222107 169.84622803 227.24393311 169.08457947 227.24569702 C166.61691431 227.24898912 164.14952483 227.23799044 161.68188477 227.22705078 C159.87881701 227.22643772 158.07574878 227.22670576 156.27268124 227.2277813 C151.45388945 227.22823192 146.63519743 227.21665892 141.81642914 227.20256042 C137.29098707 227.1911518 132.765569 227.19063316 128.2401123 227.18920898 C115.01422837 227.17872361 101.78836292 227.15080122 88.5625 227.125 C59.006875 227.08375 29.45125 227.0425 -1 227 C-0.67 152.09 -0.34 77.18 0 0 Z M47 47 C47 91.22 47 135.44 47 181 C66.614375 181.0825 86.22875 181.165 106.4375 181.25 C115.71186157 181.30462402 115.71186157 181.30462402 125.17358398 181.36035156 C130.73785719 181.37373304 130.73785719 181.37373304 136.30213928 181.3817749 C138.77177313 181.38789896 141.24139535 181.40192942 143.71095276 181.42230225 C147.46172724 181.45168566 151.21177373 181.45562057 154.96264648 181.45410156 C156.60037726 181.47569021 156.60037726 181.47569021 158.2711935 181.497715 C166.01010993 181.455909 172.27201809 180.07449593 178.33984375 175.0703125 C179.13068359 174.10738281 179.13068359 174.10738281 179.9375 173.125 C180.48277344 172.48820312 181.02804687 171.85140625 181.58984375 171.1953125 C185.21491369 165.55185181 185.30149719 159.96120645 185.30639648 153.48144531 C185.31888176 152.07045059 185.31888176 152.07045059 185.33161926 150.63095093 C185.3556579 147.52996647 185.36448438 144.42919268 185.37109375 141.328125 C185.38006545 139.16347188 185.38918739 136.99881937 185.39845276 134.83416748 C185.41492915 130.29828385 185.4226403 125.76247391 185.42553711 121.2265625 C185.43091632 115.43183673 185.4685838 109.63780954 185.51428127 103.84328079 C185.54411548 99.37182119 185.55126207 94.90052843 185.55226326 90.42897797 C185.55645367 88.29365595 185.56884024 86.15833289 185.58978081 84.02310944 C186.26261154 68.59612452 186.26261154 68.59612452 180 55 C172.18440403 47.62503788 164.83158938 46.70425125 154.39501953 46.77294922 C152.62460958 46.77258761 152.62460958 46.77258761 150.81843376 46.7722187 C147.00648273 46.77370879 143.19472845 46.78892788 139.3828125 46.8046875 C137.02596124 46.80762887 134.66910868 46.80966873 132.31225586 46.81079102 C123.58315062 46.82126741 114.85407337 46.84918988 106.125 46.875 C86.61375 46.91625 67.1025 46.9575 47 47 Z " fill="#EE7E19" transform="translate(550,494)"/>
<path d="M0 0 C7.65558199 7.65558199 14.7911918 15.63923034 21.59375 24.05859375 C24.30585649 27.37387977 27.0810578 30.62869677 29.875 33.875 C35.16270409 40.02010166 40.41112092 46.19685874 45.64111328 52.39111328 C47.92546186 55.09572289 50.21289508 57.79772127 52.5 60.5 C53.41668126 61.58332099 54.33334793 62.66665432 55.25 63.75 C55.70375 64.28625 56.1575 64.8225 56.625 65.375 C65.33333333 75.66666667 74.04166667 85.95833333 82.75 96.25 C83.20391113 96.78641113 83.65782227 97.32282227 84.12548828 97.87548828 C85.04064413 98.95709521 85.9556835 100.03880069 86.87060547 101.12060547 C89.18443478 103.85617939 91.50036471 106.58992474 93.8203125 109.3203125 C99.62233448 116.15384974 105.3505085 123.0392685 111 130 C114.24956601 128.91681133 114.83392636 128.29783983 116.9375 125.75 C120.15878252 121.94984007 123.48478513 118.27350174 126.875 114.625 C131.19820738 109.96126143 135.47817738 105.26304622 139.72265625 100.52734375 C142.29809775 97.66917797 144.89685764 94.83289739 147.5 92 C150.85293117 88.35072829 154.18998357 84.68830402 157.5 81 C161.27537217 76.79315673 165.08980448 72.62325147 168.9140625 68.4609375 C171.79422607 65.32332914 174.65531614 62.16979059 177.5 59 C181.27537217 54.79315673 185.08980448 50.62325147 188.9140625 46.4609375 C191.79422607 43.32332914 194.65531614 40.16979059 197.5 37 C200.81001722 33.3116951 204.147145 29.64934235 207.5 26 C213.22668115 19.76551478 218.90466967 13.48823604 224.5234375 7.15625 C225.74933594 5.77953125 225.74933594 5.77953125 227 4.375 C228.11375 3.11816406 228.11375 3.11816406 229.25 1.8359375 C229.8275 1.23007812 230.405 0.62421875 231 0 C231.33 0 231.66 0 232 0 C232 74.91 232 149.82 232 227 C216.49 227 200.98 227 185 227 C184.67 195.32 184.34 163.64 184 131 C173.90823865 144.93837839 173.90823865 144.93837839 164 159 C159.03732078 166.12447342 153.99608902 173.18543458 148.89453125 180.2109375 C144.27374435 186.58829472 139.76010112 193.03731381 135.2590332 199.49951172 C130.58137191 206.20251829 125.81453401 212.83752909 120.99804688 219.44140625 C120.48693359 220.14394531 119.97582031 220.84648438 119.44921875 221.5703125 C118.99893311 222.18664551 118.54864746 222.80297852 118.0847168 223.43798828 C116.92917273 225.02261795 116.92917273 225.02261795 116 227 C112.16163236 225.51016968 110.66970635 223.46302313 108.4609375 220.046875 C107.80287109 219.04172852 107.14480469 218.03658203 106.46679688 217.00097656 C105.43135742 215.39174316 105.43135742 215.39174316 104.375 213.75 C102.93666754 211.5509235 101.49657002 209.35300043 100.0546875 207.15625 C99.35827148 206.09277344 98.66185547 205.02929688 97.94433594 203.93359375 C95.54357438 200.31134979 93.05488988 196.76457906 90.5 193.25 C86.95959854 188.36457721 83.56735463 183.40167749 80.2421875 178.3671875 C77.47623496 174.19404068 74.64252909 170.0673389 71.8125 165.9375 C71.26368164 165.13650879 70.71486328 164.33551758 70.14941406 163.51025391 C69.01485339 161.85500273 67.88008456 160.19989422 66.74511719 158.54492188 C63.80719363 154.26051852 60.87214497 149.97414942 57.9375 145.6875 C57.40165283 144.90560303 56.86580566 144.12370605 56.3137207 143.31811523 C55.55321411 142.20738647 55.55321411 142.20738647 54.77734375 141.07421875 C54.33640381 140.43057373 53.89546387 139.78692871 53.44116211 139.1237793 C51.61108845 136.4268776 49.8078843 133.71182645 48 131 C47.67 162.68 47.34 194.36 47 227 C31.49 227 15.98 227 0 227 C0 152.09 0 77.18 0 0 Z " fill="#EE7E19" transform="translate(1570,494)"/>
<path d="M0 0 C15.51 0 31.02 0 47 0 C47 30.03 47 60.06 47 91 C61.52 90.67 76.04 90.34 91 90 C97.52751909 82.92852099 103.64226693 76.29448751 109.58984375 68.87890625 C112.97407653 64.83647585 116.58965623 61.02866183 120.20288086 57.19165039 C123.44563261 53.72921156 126.53436781 50.20704024 129.5 46.5 C132.98562736 42.1429658 136.67793667 38.05878467 140.5 34 C145.11667897 29.09705645 149.45682482 24.07155093 153.6640625 18.80859375 C156.96464096 14.84017249 160.47575891 11.08068966 164.01586914 7.32592773 C166.23629489 4.96194156 168.19569422 2.70645866 170 0 C172.86001587 -0.36076355 172.86001587 -0.36076355 176.56103516 -0.34057617 C177.57096779 -0.34123329 177.57096779 -0.34123329 178.6013031 -0.34190369 C180.83084938 -0.33981056 183.05964731 -0.3164562 185.2890625 -0.29296875 C186.83319691 -0.28737463 188.37733664 -0.28310366 189.92147827 -0.28010559 C193.98883727 -0.26864226 198.05587571 -0.23916262 202.12310791 -0.20599365 C206.27213199 -0.17532462 210.42120778 -0.16160706 214.5703125 -0.14648438 C222.7136889 -0.11429405 230.85680459 -0.06308008 239 0 C237.45846602 3.2139687 235.79256346 5.55058232 233.375 8.1875 C232.570625 9.06535156 231.76625 9.94320313 230.9375 10.84765625 C225.3480975 16.86174374 219.71071622 22.83088652 214.07421875 28.80078125 C210.83438839 32.23585563 207.60395794 35.67970779 204.375 39.125 C203.44953369 40.11234131 203.44953369 40.11234131 202.50537109 41.11962891 C197.7529794 46.19192916 193.00983234 51.27281446 188.26904297 56.35595703 C183.39025807 61.58567448 178.49875697 66.8033869 173.60546875 72.01953125 C169.39698912 76.50683355 165.19601967 81.00104644 161 85.5 C155.96242485 90.89966436 150.92176057 96.29641853 145.875 101.6875 C145.24722656 102.35910156 144.61945313 103.03070312 143.97265625 103.72265625 C143.08513672 104.67011719 143.08513672 104.67011719 142.1796875 105.63671875 C141.63022461 106.22888184 141.08076172 106.82104492 140.51464844 107.43115234 C139 109 139 109 136.5078125 111.14453125 C134.77799641 112.89036046 134.77799641 112.89036046 134.9296875 115.23046875 C136.4900581 119.26807004 138.75727219 122.70193178 141.125 126.3125 C142.22605174 128.02292836 143.32627361 129.73389114 144.42578125 131.4453125 C145.00924316 132.34926758 145.59270508 133.25322266 146.19384766 134.18457031 C149.27746174 138.99130694 152.29238661 143.84071149 155.3125 148.6875 C156.58970752 150.73315798 157.86705256 152.7787301 159.14453125 154.82421875 C159.78213379 155.84563965 160.41973633 156.86706055 161.07666016 157.91943359 C164.21589223 162.94746487 167.35807129 167.97365354 170.5 173 C171.74350423 174.98957418 172.98699378 176.97915753 174.23046875 178.96875 C175.15738525 180.45181641 175.15738525 180.45181641 176.10302734 181.96484375 C178.04394531 185.0703125 179.98486328 188.17578125 181.92578125 191.28125 C182.571521 192.31427246 183.21726074 193.34729492 183.88256836 194.41162109 C185.15350048 196.44543404 186.42386032 198.47960473 187.69360352 200.51416016 C190.50365666 205.01549413 193.32006206 209.51220966 196.1640625 213.9921875 C196.63739014 214.74048828 197.11071777 215.48878906 197.59838867 216.25976562 C198.46460524 217.62802457 199.33433068 218.99407112 200.20825195 220.35742188 C203 224.77603324 203 224.77603324 203 227 C152.67805632 231.01322743 152.67805632 231.01322743 143.1171875 225.03125 C137.70263982 219.85628408 135.43770209 213.41094635 133.21435547 206.38671875 C131.18225339 200.71938461 127.82257247 195.9830326 124.5 191 C123.24995924 189.01452618 122.00646348 187.02491668 120.76953125 185.03125 C120.15158691 184.04253906 119.53364258 183.05382812 118.89697266 182.03515625 C114.50813802 175.01302083 110.11930339 167.99088542 105.73046875 160.96875 C105.1262207 160.04771484 104.52197266 159.12667969 103.89941406 158.17773438 C102.41708534 155.697787 101.2765871 153.40745134 100.13964844 150.77539062 C96.532203 142.88745294 96.532203 142.88745294 89.64083862 138.13745117 C82.73848691 136.82128279 75.86333119 137.21079329 68.875 137.5 C61.65625 137.665 54.4375 137.83 47 138 C47 167.37 47 196.74 47 227 C31.49 227 15.98 227 0 227 C0 152.09 0 77.18 0 0 Z " fill="#EE7E19" transform="translate(301,494)"/>
<path d="M0 0 C15.51 0 31.02 0 47 0 C47.01458252 4.79450684 47.02916504 9.58901367 47.04418945 14.52880859 C47.09453946 30.37463958 47.16098588 46.22037292 47.23571491 62.0661068 C47.28062788 71.67280351 47.3200529 81.27946352 47.34643555 90.88623047 C47.36945208 99.26217075 47.40289088 107.63799446 47.44870156 116.01384223 C47.47258454 120.44636284 47.49134554 124.87876835 47.49761391 129.31135178 C47.50368711 133.48926644 47.52376716 137.66688679 47.55427551 141.84469223 C47.56302005 143.37240043 47.5667858 144.90014714 47.56500816 146.42787933 C47.48393278 160.64435238 47.48393278 160.64435238 53.1875 173.375 C59.63204014 179.38990413 65.70055702 180.59260046 74.328125 180.51757812 C75.33081421 180.5245874 76.33350342 180.53159668 77.36657715 180.53881836 C80.66133813 180.55633765 83.95523118 180.54479669 87.25 180.53125 C89.55110844 180.53394664 91.85221576 180.5378305 94.15332031 180.54284668 C98.96820968 180.54873354 103.78280155 180.54020463 108.59765625 180.52148438 C114.757911 180.49869575 120.91746856 180.51182313 127.07769775 180.53577423 C131.82703875 180.55025393 136.57621548 180.54561617 141.32556152 180.53526306 C143.59647708 180.5326018 145.86740774 180.53584431 148.13830566 180.54518127 C151.31656187 180.55538229 154.49370157 180.53979508 157.671875 180.51757812 C158.60302124 180.52567505 159.53416748 180.53377197 160.49353027 180.54211426 C167.41989055 180.45277892 172.7262568 178.8250255 178.0234375 174.25390625 C178.69246094 173.41666016 178.69246094 173.41666016 179.375 172.5625 C179.83648438 172.00691406 180.29796875 171.45132813 180.7734375 170.87890625 C183.7097529 166.38091993 184.25403107 162.4968989 184.2784729 157.1726532 C184.2871615 156.16169113 184.2871615 156.16169113 184.29602563 155.13030559 C184.31298628 152.87938329 184.31589869 150.62866651 184.31884766 148.37768555 C184.32814856 146.76119995 184.33831748 145.14471914 184.34928894 143.52824402 C184.37658471 139.14439256 184.39173711 134.76057323 184.40471697 130.37665915 C184.42034933 125.79353384 184.44713923 121.21047411 184.4727478 116.62739563 C184.51953369 107.95067483 184.55627874 99.27394168 184.58942068 90.59715921 C184.62764338 80.71810967 184.67705317 70.83912601 184.72740483 60.960132 C184.83072191 40.64013059 184.91850625 20.32010147 185 0 C200.51 0 216.02 0 232 0 C232.11313195 22.01930652 232.20512616 44.03837551 232.25906086 66.05789948 C232.28477604 76.28333486 232.31979786 86.50857604 232.37719727 96.73388672 C232.42723787 105.65257548 232.45933953 114.57112349 232.47044247 123.48994875 C232.47692645 128.20674866 232.49202406 132.92314613 232.52865028 137.63981628 C232.56293732 142.09190207 232.57298801 146.54342497 232.56553841 150.99563026 C232.56689851 152.61762376 232.57663438 154.23963882 232.59602737 155.86151695 C232.83562133 176.95877274 225.81997754 194.65597799 211 210 C198.03823242 221.56097464 184.05639782 227.28824375 166.89282227 227.32226562 C165.68855087 227.33219543 164.48427948 227.34212524 163.24351501 227.35235596 C159.95368081 227.37648146 156.66398834 227.39146688 153.37408185 227.40037727 C151.31069134 227.40626631 149.24732235 227.41448122 147.18394279 227.42338562 C140.70515577 227.45070634 134.22641881 227.47005009 127.7475782 227.4777894 C120.31213022 227.48672408 112.87742247 227.52170613 105.44219929 227.57979059 C99.66774347 227.62330661 93.89349364 227.64321305 88.11887592 227.64587164 C84.68309667 227.64794912 81.24801438 227.65935461 77.81241035 227.69551086 C54.39941281 227.90535192 37.30966679 224.90868383 19.6875 208.1875 C3.94890813 191.69224506 -0.5021085 172.15692311 -0.34057617 150.08056641 C-0.33972773 148.43320227 -0.34020927 146.785837 -0.34190369 145.13847351 C-0.3427566 140.7116557 -0.32524637 136.2850869 -0.30418181 131.85832644 C-0.28529621 127.21524636 -0.28365528 122.57215919 -0.28010559 117.92904663 C-0.27081977 109.15692333 -0.24625338 100.38491359 -0.21605712 91.61284006 C-0.18240466 81.61755839 -0.16599996 71.622271 -0.15097082 61.62694669 C-0.11970032 41.08455387 -0.0647321 20.54231651 0 0 Z " fill="#EE7E19" transform="translate(1313,494)"/>
<path d="M0 0 C15.51 0 31.02 0 47 0 C47.0093457 4.85509277 47.01869141 9.71018555 47.02832031 14.71240234 C47.06209503 30.75781531 47.11744642 46.80310034 47.18390274 62.84840965 C47.2236669 72.57618858 47.25607272 82.30388691 47.27099609 92.03173828 C47.28402621 100.5131768 47.31102557 108.99443779 47.35461307 117.47577631 C47.37719732 121.96422314 47.39291251 126.45245125 47.39188385 130.94095993 C47.39113544 135.17147237 47.40915847 139.40150191 47.44116783 143.63188934 C47.44963999 145.17894664 47.4514351 146.72605827 47.44580269 148.27312851 C47.35185976 162.08530556 47.35185976 162.08530556 53.74982071 173.9296627 C59.96755515 179.71508671 65.78482957 180.29842039 73.98754883 180.29052734 C74.98979996 180.29724457 75.99205109 180.30396179 77.02467346 180.31088257 C80.33550994 180.32986854 83.64614373 180.33378717 86.95703125 180.3359375 C89.26242659 180.34236528 91.5678211 180.34909362 93.87321472 180.35610962 C98.70594168 180.36808409 103.53859714 180.37179029 108.37133789 180.37060547 C114.5551686 180.37040234 120.73853946 180.39769826 126.92226124 180.43214989 C131.68444411 180.45441974 136.44651635 180.45844296 141.20874596 180.45738602 C143.48805004 180.45974208 145.76735718 180.46856582 148.04660988 180.48405075 C151.23948714 180.50371059 154.43137336 180.49787194 157.62426758 180.48583984 C159.02805664 180.50269836 159.02805664 180.50269836 160.46020508 180.51989746 C168.04830223 180.44746549 173.34951804 178.59158236 178.8125 173.25 C184.63383716 164.60115622 184.44387472 156.28200888 184.43237305 146.22070312 C184.44139924 144.62347662 184.45172856 143.02625703 184.46325684 141.42904663 C184.49075236 137.11145775 184.50010119 132.79400058 184.50611091 128.47633553 C184.51551402 123.9572748 184.54171895 119.43831169 184.56611633 114.91931152 C184.6097318 106.37018287 184.63830917 97.82107322 184.66143972 89.27186728 C184.68851796 79.53541405 184.73242785 69.79905927 184.77772844 60.06267643 C184.87050383 40.04182342 184.93999541 20.0209799 185 0 C200.51 0 216.02 0 232 0 C232.09048746 21.77580723 232.16409064 43.55146092 232.20724869 65.32740879 C232.22782528 75.43961406 232.25585156 85.55169373 232.30175781 95.66381836 C232.34177631 104.48324754 232.3674684 113.3025857 232.37635398 122.12210315 C232.38154343 126.78682954 232.39363693 131.45129567 232.42292023 136.11593819 C232.45032729 140.51790143 232.45839464 144.91950036 232.45243073 149.32154083 C232.45351977 150.9262052 232.46132172 152.53088338 232.4768219 154.13547325 C232.65213026 173.24121519 227.91380926 190.35547403 215 205 C214.34386719 205.75023437 213.68773437 206.50046875 213.01171875 207.2734375 C207.23902435 213.4577134 200.63874736 218.34532199 193 222 C192.19378708 222.41516876 191.38757416 222.83033752 190.55693054 223.25808716 C178.41583456 228.56164685 165.62434368 227.7353108 152.59846115 227.67162752 C149.14838533 227.65880807 145.69837006 227.67075247 142.24829102 227.67855835 C136.45869839 227.68760896 130.66942653 227.67578889 124.87988281 227.65185547 C118.22334739 227.62465262 111.56757818 227.63347009 104.91106129 227.6609875 C99.15597722 227.68380979 93.40112137 227.68681523 87.64600658 227.67379415 C84.22620814 227.66607098 80.80676765 227.66475739 77.38699341 227.68147659 C50.1042637 227.77305396 50.1042637 227.77305396 39 222 C37.60261597 221.28525009 37.60261597 221.28525009 36.17700195 220.55606079 C29.62964954 217.03268486 24.27857361 212.18322991 19 207 C17.93072266 205.96746094 17.93072266 205.96746094 16.83984375 204.9140625 C2.75366368 190.31220339 -0.64189572 171.2240363 -0.45410156 151.78344727 C-0.45297006 150.11623156 -0.45361283 148.44901387 -0.45587158 146.78179932 C-0.45700787 142.3053778 -0.43367682 137.8293949 -0.40557575 133.35307431 C-0.38037883 128.65662505 -0.37820581 123.96016305 -0.37347412 119.26365662 C-0.36109764 110.39236056 -0.328349 101.52126434 -0.28807616 92.65005583 C-0.24319153 82.54110154 -0.22132965 72.43213715 -0.20129442 62.32310784 C-0.15961092 41.54860264 -0.08632608 20.77437097 0 0 Z " fill="#EE7E19" transform="translate(801,494)"/>
<path d="M0 0 C3.82349452 1.27449817 4.1362998 2.48076464 6.08203125 5.94140625 C6.97438477 7.51051758 6.97438477 7.51051758 7.88476562 9.11132812 C8.52091797 10.25021484 9.15707031 11.38910156 9.8125 12.5625 C10.48399187 13.74863294 11.15653267 14.93417261 11.83007812 16.11914062 C13.21612675 18.5583344 14.59856985 20.99951954 15.97900391 23.44189453 C18.93410355 28.65817169 21.96791008 33.82822379 25 39 C30.50086738 48.40907159 35.95449784 57.84471585 41.39453125 67.2890625 C45.57349128 74.5395149 49.77740506 81.77488269 54 89 C59.49945536 98.4099033 64.95449196 107.84470563 70.39453125 117.2890625 C75.140603 125.52344786 79.92267217 133.73625324 84.71948242 141.94116211 C89.75571389 150.56282074 94.74443169 159.21153004 99.7109375 167.87353516 C102.40795017 172.56539239 105.11827427 177.23866288 107.98046875 181.83203125 C108.41319092 182.5293335 108.84591309 183.22663574 109.29174805 183.94506836 C110.40173195 185.71803719 111.52821222 187.48065024 112.65625 189.2421875 C114 192 114 192 114.0390625 194.01953125 C112.45690456 197.03514808 110.2090352 199.37190015 107.875 201.8125 C107.37653564 202.34294922 106.87807129 202.87339844 106.36450195 203.41992188 C104.91724935 204.95404242 103.4597373 206.47776949 102 208 C101.31550781 208.72574219 100.63101562 209.45148438 99.92578125 210.19921875 C96.54354852 213.70305984 93.1108488 216.33970175 89 219 C82.79781189 208.81429269 76.81027148 198.51066188 70.86303711 188.17431641 C66.60055551 180.76797048 62.31285931 173.37711432 58 166 C52.50039448 156.59018505 47.04550744 147.15529333 41.60546875 137.7109375 C36.86366132 129.4839507 32.08549362 121.27875909 27.29370117 113.08081055 C22.12316138 104.22783037 16.99863185 95.34868655 11.88476562 86.46289062 C10.99241211 84.91311523 10.99241211 84.91311523 10.08203125 83.33203125 C9.55843018 82.42171143 9.0348291 81.5113916 8.49536133 80.57348633 C7.46219884 78.79543477 6.39726305 77.0356035 5.30737305 75.29174805 C4 73 4 73 4 71 C3.34 71 2.68 71 2 71 C1.60192139 72.31460205 1.60192139 72.31460205 1.19580078 73.65576172 C0.03231771 76.90961862 -1.34659437 79.5579478 -3.1328125 82.5078125 C-3.76582275 83.56234619 -4.39883301 84.61687988 -5.05102539 85.70336914 C-5.55691696 86.53772995 -5.55691696 86.53772995 -6.07302856 87.38894653 C-7.89665209 90.39844644 -9.69957868 93.42031147 -11.50390625 96.44140625 C-12.06448982 97.3787989 -12.06448982 97.3787989 -12.63639832 98.33512878 C-16.53116355 104.86201781 -20.30572586 111.45551186 -24.0625 118.0625 C-24.72911229 119.23359215 -25.39577905 120.4046533 -26.0625 121.57568359 C-27.05873702 123.32561674 -28.05492241 125.07557887 -29.05075073 126.82574463 C-37.83946369 142.26470772 -46.76739739 157.62398662 -55.73095703 172.96191406 C-60.01267714 180.29341233 -64.26229076 187.64298725 -68.5 195 C-73.8791408 204.33863207 -79.29259447 213.65640317 -84.73046875 222.9609375 C-89.01222122 230.29283723 -93.26210939 237.64267238 -97.5 245 C-102.8791408 254.33863207 -108.29259447 263.65640317 -113.73046875 272.9609375 C-118.01222122 280.29283723 -122.26210939 287.64267238 -126.5 295 C-131.86947989 304.32185993 -137.27148312 313.62392056 -142.7019043 322.91040039 C-145.87739717 328.3456479 -149.0365544 333.78984639 -152.17578125 339.24609375 C-152.69590286 340.14976181 -152.69590286 340.14976181 -153.22653198 341.07168579 C-154.91696396 344.00938927 -156.60530817 346.94825226 -158.29101562 349.88867188 C-159.19303711 351.4577832 -159.19303711 351.4577832 -160.11328125 353.05859375 C-160.91439331 354.45549438 -160.91439331 354.45549438 -161.73168945 355.88061523 C-163 358 -163 358 -164 359 C-165.35094982 359.09268999 -166.70667091 359.11747326 -168.06079102 359.11352539 C-168.92160782 359.11344986 -169.78242462 359.11337433 -170.66932678 359.11329651 C-171.60473801 359.10813522 -172.54014923 359.10297394 -173.50390625 359.09765625 C-174.45692123 359.0962413 -175.40993622 359.09482635 -176.39183044 359.09336853 C-179.44875165 359.08775152 -182.50560077 359.07519616 -185.5625 359.0625 C-187.62955624 359.05748719 -189.69661362 359.05292391 -191.76367188 359.04882812 C-196.84247588 359.03777656 -201.9212257 359.02050055 -207 359 C-205.85138815 356.03529672 -204.65282613 353.19766038 -203.109375 350.41796875 C-202.73723877 349.74636719 -202.36510254 349.07476562 -201.98168945 348.3828125 C-201.57523193 347.65835937 -201.16877441 346.93390625 -200.75 346.1875 C-200.31453857 345.40761719 -199.87907715 344.62773437 -199.43041992 343.82421875 C-194.62896489 335.26899001 -189.66509496 326.80878551 -184.70703125 318.34375 C-180.94246163 311.91240269 -177.21827906 305.45819045 -173.5 299 C-168.12106363 289.6612509 -162.70740477 280.34359553 -157.26953125 271.0390625 C-152.98777878 263.70716277 -148.73789061 256.35732762 -144.5 249 C-139.1208592 239.66136793 -133.70740553 230.34359683 -128.26953125 221.0390625 C-123.98777878 213.70716277 -119.73789061 206.35732762 -115.5 199 C-110.1208592 189.66136793 -104.70740553 180.34359683 -99.26953125 171.0390625 C-94.98777878 163.70716277 -90.73789061 156.35732762 -86.5 149 C-81.1208592 139.66136793 -75.70740553 130.34359683 -70.26953125 121.0390625 C-65.98777878 113.70716277 -61.73789061 106.35732762 -57.5 99 C-52.1208592 89.66136793 -46.70740553 80.34359683 -41.26953125 71.0390625 C-36.98777867 63.70716258 -32.73791701 56.35731258 -28.5 49 C-21.9233718 37.58328826 -15.29719363 26.19611997 -8.6484375 14.82128906 C-5.76278557 9.88251631 -2.88154051 4.94117235 0 0 Z " fill="#CDD2D6" transform="translate(904,92)"/>
<path d="M0 0 C0.66 0 1.32 0 2 0 C3.50537109 2.08520508 3.50537109 2.08520508 5.2734375 5.01953125 C5.92699219 6.09460938 6.58054688 7.1696875 7.25390625 8.27734375 C7.9609375 9.45572917 8.66796875 10.63411458 9.375 11.8125 C10.47150184 13.62150706 11.570666 15.42887812 12.66998291 17.23617554 C13.40724814 18.44859126 14.14369507 19.66150496 14.8793335 20.87490845 C17.8602808 25.78854771 20.91130116 30.65364084 24 35.5 C29.44879007 44.07430002 34.76498126 52.72789239 40.078125 61.38671875 C44.00909594 67.78579931 47.97306991 74.160904 52 80.5 C57.44741689 89.07519197 62.76496408 97.72786439 68.078125 106.38671875 C72.00909594 112.78579931 75.97306991 119.160904 80 125.5 C85.44741689 134.07519197 90.76496408 142.72786439 96.078125 151.38671875 C100.00909594 157.78579931 103.97306991 164.160904 108 170.5 C113.43607775 179.05734218 118.74612387 187.68989814 124.04296875 196.33398438 C128.79282575 204.07432194 133.61324288 211.76592081 138.546875 219.390625 C139.00578125 220.10734375 139.4646875 220.8240625 139.9375 221.5625 C140.33839844 222.18253906 140.73929687 222.80257812 141.15234375 223.44140625 C142 225 142 225 142 227 C134.28494646 227.58769386 126.57569068 227.98750949 118.84326172 228.26342773 C116.22062852 228.37847249 113.59945173 228.53500993 110.98193359 228.73510742 C93.58880179 230.03048162 93.58880179 230.03048162 86 227 C79.79251254 221.64840464 76.53636846 214.30344496 73.33596802 206.90916443 C71.29011968 202.45418563 68.64245704 198.45078012 65.9375 194.375 C64.95011239 192.82613515 63.96537967 191.27557172 62.984375 189.72265625 C62.49517578 188.95066895 62.00597656 188.17868164 61.50195312 187.38330078 C58.32067318 182.33524246 55.1944156 177.25298913 52.05957031 172.17602539 C47.95949267 165.5397361 43.82855644 158.9232812 39.6875 152.3125 C33.67335487 142.70889102 27.72380446 133.06692825 21.80102539 123.40673828 C17.15677008 115.84354815 12.44625751 108.32567118 7.62817383 100.87182617 C5.36508703 97.33547586 3.3677391 94.00102991 2 90 C1.34 90 0.68 90 0 90 C-0.39372803 91.06710205 -0.39372803 91.06710205 -0.79541016 92.15576172 C-2.06031485 95.14241345 -3.56612278 97.75093066 -5.2734375 100.5078125 C-5.92707275 101.56693848 -6.58070801 102.62606445 -7.25415039 103.71728516 C-7.9609516 104.85328261 -8.66790504 105.98918537 -9.375 107.125 C-10.10497905 108.30372342 -10.83471292 109.48259871 -11.56420898 110.66162109 C-16.64150895 118.85755987 -21.77491542 127.01771986 -26.9375 135.16015625 C-35.33752632 148.41679409 -43.64554366 161.73148464 -51.80151367 175.13964844 C-56.1704396 182.30875704 -60.62299217 189.42501324 -65.08398438 196.53710938 C-65.66212891 197.45943359 -66.24027344 198.38175781 -66.8359375 199.33203125 C-67.48763916 200.31550537 -68.13934082 201.29897949 -68.81079102 202.31225586 C-70.65262424 205.22503103 -71.99588597 208.23005452 -73.35913086 211.39282227 C-79.92566212 225.50425477 -79.92566212 225.50425477 -86.97192383 228.09103394 C-95.56113199 229.62798948 -104.1605369 228.9143898 -112.8125 228.3125 C-115.45079965 228.20703282 -118.0895047 228.11123738 -120.72851562 228.02539062 C-127.16126178 227.7951771 -133.57873432 227.44513149 -140 227 C-138.74528675 223.80326196 -137.43999195 220.85595782 -135.671875 217.91015625 C-135.20942383 217.13784668 -134.74697266 216.36553711 -134.27050781 215.56982422 C-133.76874023 214.74240723 -133.26697266 213.91499023 -132.75 213.0625 C-132.21987305 212.18352051 -131.68974609 211.30454102 -131.14355469 210.39892578 C-126.70410458 203.07706886 -122.11942708 195.8524268 -117.49951172 188.64355469 C-112.87598149 181.41605425 -108.35921391 174.12713737 -103.875 166.8125 C-98.80424607 158.54288059 -93.69580076 150.30142838 -88.50073242 142.109375 C-82.59348766 132.79269275 -76.76021366 123.42990838 -70.91894531 114.07177734 C-69.03951993 111.06326206 -67.15702804 108.05669021 -65.2734375 105.05078125 C-58.74188978 94.62334326 -52.25007302 84.17325419 -45.8125 73.6875 C-40.7637734 65.46504648 -35.6753696 57.27124968 -30.50927734 49.12207031 C-26.46385861 42.74060317 -22.44481461 36.34296395 -18.4375 29.9375 C-17.80618164 28.92993652 -17.17486328 27.92237305 -16.52441406 26.88427734 C-13.53509478 22.10276119 -10.571256 17.30931919 -7.671875 12.47265625 C-7.16470947 11.62904541 -6.65754395 10.78543457 -6.13500977 9.91625977 C-5.19145234 8.34122387 -4.25411894 6.76243743 -3.32397461 5.17944336 C-2.26955051 3.41973539 -1.14239536 1.70391172 0 0 Z " fill="#EE7E19" transform="translate(141,494)"/>
<path d="M0 0 C15.84 0 31.68 0 48 0 C48 59.73 48 119.46 48 181 C109.05 181 170.1 181 233 181 C233 196.18 233 211.36 233 227 C156.11 227 79.22 227 0 227 C0 152.09 0 77.18 0 0 Z " fill="#EE7E19" transform="translate(1059,494)"/>
<path d="M0 0 C8.91 0 17.82 0 27 0 C29.041875 3.815625 31.08375 7.63125 33.1875 11.5625 C39.49547352 23.31033623 45.98943882 34.94242147 52.59814453 46.52392578 C54.43405392 49.76666229 56.22965233 53.0310042 58.01733398 56.30053711 C58.88662953 57.97269222 58.88662953 57.97269222 60 59 C68.64382248 44.04994529 77.25582956 29.08256047 85.80664062 14.07910156 C86.44279297 12.96374023 87.07894531 11.84837891 87.734375 10.69921875 C88.57307129 9.22714966 88.57307129 9.22714966 89.42871094 7.7253418 C90.92323369 5.13314828 92.46054259 2.56576234 94 0 C102.58 0 111.16 0 120 0 C120 40.59 120 81.18 120 123 C112.41 123 104.82 123 97 123 C96.67 97.26 96.34 71.52 96 45 C83.47471799 66.07389282 83.47471799 66.07389282 71.25 87.3125 C69.94535607 89.62261951 68.6375607 91.9308647 67.328125 94.23828125 C66.7805957 95.20805908 66.23306641 96.17783691 65.66894531 97.17700195 C63.87795299 100.20644084 62.06862563 103.15129279 60 106 C59.34 106 58.68 106 58 106 C57.64397705 105.33282959 57.2879541 104.66565918 56.92114258 103.97827148 C49.93448103 90.90216401 42.88582761 77.87623792 35.52856445 65.00366211 C31.56460659 58.05750151 27.79592436 51.0495738 24 44 C23.67 70.07 23.34 96.14 23 123 C15.41 123 7.82 123 0 123 C0 82.41 0 41.82 0 0 Z " fill="#CDD2D6" transform="translate(656,793)"/>
<path d="M0 0 C12.02184982 10.09759176 20.51560529 23.66232314 22.875 39.3125 C23.89265691 51.32107999 23.72681601 63.13355089 18.875 74.3125 C18.47410156 75.31152344 18.07320312 76.31054688 17.66015625 77.33984375 C11.04292196 92.2430062 -2.19272679 103.96626914 -17.10546875 110.28125 C-34.37797994 116.18027064 -51.81900766 115.79067397 -68.3125 107.8125 C-84.77333947 99.39104538 -96.05333641 84.83079302 -102 67.4375 C-106.29962623 49.85509988 -103.37981207 31.39833783 -94.41015625 15.92578125 C-86.19521218 2.52839718 -73.0844541 -7.0110558 -58.125 -11.6875 C-57.47144531 -11.91050781 -56.81789063 -12.13351562 -56.14453125 -12.36328125 C-36.5740737 -17.92780206 -15.8093683 -11.87523978 0 0 Z M-66.125 19.3125 C-66.81335938 19.96089844 -67.50171875 20.60929688 -68.2109375 21.27734375 C-76.11544409 29.40223621 -79.78851014 38.78481343 -80.26171875 50.07421875 C-79.71906916 62.92726182 -74.47856171 73.63277978 -65.125 82.3125 C-54.97137115 89.76485044 -44.51446413 91.5324145 -32.125 90.3125 C-21.33645014 88.09093671 -13.03672432 81.54049668 -6.62890625 72.75390625 C-0.99747243 63.61196823 0.95706654 52.90893389 -0.6875 42.3125 C-3.47861003 30.87262141 -9.61413603 21.06355814 -19.64453125 14.71875 C-34.88814595 6.66375237 -53.08589265 6.91147662 -66.125 19.3125 Z " fill="#CDD2D6" transform="translate(941.125,804.6875)"/>
<path d="M0 0 C4.14617986 3.30500463 7.96199774 6.35952879 10.984375 10.75390625 C9.47209054 14.35069091 7.34764953 16.56810604 4.546875 19.25390625 C2.27130191 21.44325499 0.19948605 23.44675501 -1.61328125 26.03515625 C-2.07605469 26.60234375 -2.53882813 27.16953125 -3.015625 27.75390625 C-4.005625 27.75390625 -4.995625 27.75390625 -6.015625 27.75390625 C-7.55859375 26.1796875 -7.55859375 26.1796875 -9.203125 24.06640625 C-16.31694432 15.67802763 -24.77671505 12.65561603 -35.62109375 11.46875 C-47.12826508 11.04797903 -57.65842913 15.13280674 -66.2421875 22.72265625 C-74.05198871 30.79570918 -77.69432668 40.35374762 -78.1484375 51.51953125 C-77.67892278 62.9535957 -73.1215094 73.64802185 -65.015625 81.75390625 C-61.80779838 84.01825446 -58.48791534 85.92610124 -55.015625 87.75390625 C-54.11070313 88.27017578 -54.11070313 88.27017578 -53.1875 88.796875 C-44.8291171 92.80663977 -32.49832497 91.99516724 -23.890625 89.06640625 C-19.45089784 87.18104266 -15.83252198 84.67748691 -12.015625 81.75390625 C-11.355625 81.75390625 -10.695625 81.75390625 -10.015625 81.75390625 C-10.015625 77.79390625 -10.015625 73.83390625 -10.015625 69.75390625 C-18.265625 69.75390625 -26.515625 69.75390625 -35.015625 69.75390625 C-35.015625 62.82390625 -35.015625 55.89390625 -35.015625 48.75390625 C-19.505625 48.75390625 -3.995625 48.75390625 11.984375 48.75390625 C12.29375 59.08703125 12.29375 59.08703125 12.609375 69.62890625 C12.70041504 71.78276855 12.79145508 73.93663086 12.88525391 76.15576172 C13.24164747 90.59073255 13.24164747 90.59073255 9.90942383 95.23193359 C7.39283814 97.79290061 4.97586739 99.77917076 1.984375 101.75390625 C1.01483887 102.43855957 0.04530273 103.12321289 -0.95361328 103.82861328 C-3.57431508 105.62629283 -6.23661432 107.21412848 -9.015625 108.75390625 C-9.73105469 109.15351562 -10.44648437 109.553125 -11.18359375 109.96484375 C-25.94364831 117.33102483 -43.46089242 117.352072 -59.015625 112.75390625 C-76.74409942 106.39450954 -89.69897667 93.7179094 -97.69140625 76.7890625 C-103.39803967 63.7092567 -104.8264983 46.03012851 -100.1171875 32.3203125 C-91.62844564 12.54335009 -80.2862985 -0.83521056 -60.015625 -9.24609375 C-39.75028211 -16.32766339 -17.13364454 -12.76145805 0 0 Z " fill="#CDD2D6" transform="translate(1328.015625,803.24609375)"/>
<path d="M0 0 C1.18613892 0.00785522 1.18613892 0.00785522 2.39624023 0.01586914 C3.67724609 0.02070312 3.67724609 0.02070312 4.98413086 0.02563477 C6.33087891 0.03820312 6.33087891 0.03820312 7.70483398 0.05102539 C8.6065332 0.05553711 9.50823242 0.06004883 10.43725586 0.06469727 C12.67234712 0.07652315 14.90730835 0.09300319 17.14233398 0.11352539 C24.70826062 16.14874869 32.2179686 32.20499864 39.51733398 48.36352539 C44.89861271 60.27511032 50.41598064 72.11638336 56.01733398 83.92602539 C65.32887855 103.5667413 65.32887855 103.5667413 69.70483398 113.23852539 C70.06883301 114.03750244 70.43283203 114.83647949 70.80786133 115.65966797 C73.14233398 120.86756528 73.14233398 120.86756528 73.14233398 123.11352539 C64.56233398 123.11352539 55.98233398 123.11352539 47.14233398 123.11352539 C43.89233398 116.11352539 43.89233398 116.11352539 42.89526367 113.96118164 C42.62101562 113.37208008 42.34676758 112.78297852 42.06420898 112.17602539 C41.79189453 111.58950195 41.51958008 111.00297852 41.23901367 110.39868164 C39.58352308 106.94912867 37.85347774 103.5358129 36.14233398 100.11352539 C17.00233398 99.78352539 -2.13766602 99.45352539 -21.85766602 99.11352539 C-22.84766602 102.08352539 -23.83766602 105.05352539 -24.85766602 108.11352539 C-26.05071912 110.83429961 -27.25671249 113.5042572 -28.54516602 116.17602539 C-29.63829102 118.46540039 -30.73141602 120.75477539 -31.85766602 123.11352539 C-40.76766602 123.11352539 -49.67766602 123.11352539 -58.85766602 123.11352539 C-53.74971 111.54976087 -48.5510218 100.03773475 -43.2194519 88.57559204 C-42.00382926 85.96215657 -40.79004575 83.34787324 -39.57666016 80.73339844 C-37.8682854 77.05281991 -36.15920634 73.37256988 -34.44946289 69.69262695 C-30.63486067 61.48200273 -26.82369627 53.26978507 -23.01498413 45.056427 C-22.2050981 43.30999817 -21.3950611 41.56363934 -20.58486938 39.81735229 C-15.51189014 28.88160031 -10.46030952 17.93755895 -5.53320312 6.93505859 C-2.48183958 0.15166979 -2.48183958 0.15166979 0 0 Z M7.14233398 36.11352539 C2.63726218 45.7264603 -1.83365878 55.35530643 -6.29516602 64.98852539 C-6.83947266 66.16012207 -7.3837793 67.33171875 -7.94458008 68.53881836 C-8.45085937 69.63339355 -8.95713867 70.72796875 -9.47875977 71.85571289 C-9.93694092 72.8442627 -10.39512207 73.8328125 -10.8671875 74.85131836 C-11.92451237 76.85460935 -11.92451237 76.85460935 -11.85766602 78.11352539 C0.68233398 78.11352539 13.22233398 78.11352539 26.14233398 78.11352539 C24.1642965 72.17941293 22.17359214 66.64468126 19.56811523 61.01586914 C19.2394194 60.29613419 18.91072357 59.57639923 18.57206726 58.83485413 C17.53727779 56.57158418 16.49618917 54.31128067 15.45483398 52.05102539 C14.74542787 50.50239039 14.03643987 48.95356378 13.32788086 47.40454102 C11.60418122 43.63864125 9.87483214 39.87538502 8.14233398 36.11352539 C7.81233398 36.11352539 7.48233398 36.11352539 7.14233398 36.11352539 Z " fill="#CDD2D6" transform="translate(1146.857666015625,792.886474609375)"/>
<path d="M0 0 C7.59 0 15.18 0 23 0 C23.495 26.235 23.495 26.235 24 53 C33.26656875 43.09023172 33.26656875 43.09023172 42.26171875 32.98828125 C44.47256489 30.45947072 46.73596443 27.98127436 49 25.5 C51.84524228 22.38092989 54.6719958 19.25244609 57.4375 16.0625 C58.29601562 15.13630859 58.29601562 15.13630859 59.171875 14.19140625 C61.14897087 11.93687331 61.14897087 11.93687331 62.890625 8.83984375 C65.40249165 5.00090037 67.74611539 1.94577175 72 0 C81.21912465 -1.51798615 90.72926978 -0.73689693 100 0 C96.78893124 5.2190029 92.92469834 9.4656261 88.6875 13.875 C84.23088692 18.54297616 79.86036941 23.25293844 75.63208008 28.12939453 C73.30284107 30.79904737 70.90431588 33.39768163 68.5 36 C64.86674242 39.94478562 61.28294476 43.92459655 57.76953125 47.9765625 C54.22749258 52.02684072 50.60747906 56.00805038 47 60 C50.10521524 65.00841167 53.74477028 69.12583431 57.8125 73.375 C59.07641808 74.71139156 60.33945054 76.04862132 61.6015625 77.38671875 C62.19743164 78.01755371 62.79330078 78.64838867 63.40722656 79.29833984 C65.75021709 81.80150416 67.99446108 84.38217122 70.23046875 86.98046875 C72.60884497 89.6948628 75.05512354 92.34569125 77.5 95 C81.13619969 98.94978133 84.72820714 102.92968042 88.23828125 106.9921875 C91.12606656 110.28336632 94.10867296 113.48923686 97.08203125 116.703125 C98.81095985 118.77361383 99.85577953 120.58650417 101 123 C71.82434929 125.0799751 71.82434929 125.0799751 65.73828125 120.609375 C62.89036717 117.76471143 60.973032 114.48942341 59 111 C57.82960657 109.59256486 56.62456515 108.21264023 55.375 106.875 C54.83359375 106.24980469 54.2921875 105.62460937 53.734375 104.98046875 C51.72735462 102.68866845 49.67597149 100.44003248 47.625 98.1875 C44.49577173 94.72469918 41.49499651 91.19320997 38.5625 87.5625 C33.90038721 81.87855427 28.94506174 76.43956791 24 71 C23.67 88.16 23.34 105.32 23 123 C15.41 123 7.82 123 0 123 C0 82.41 0 41.82 0 0 Z " fill="#CDD2D6" transform="translate(425,793)"/>
<path d="M0 0 C7.59 0 15.18 0 23 0 C23.01981934 2.0931958 23.03963867 4.1863916 23.06005859 6.34301758 C23.12727482 13.29605435 23.20490777 20.24894758 23.28752708 27.20181751 C23.33725413 31.41307663 23.38358413 35.6243135 23.421875 39.83569336 C23.45902851 43.90772786 23.50546536 47.9795646 23.55806351 52.05142784 C23.57644916 53.59693585 23.59161402 55.142486 23.60334396 56.68805885 C23.60998699 76.32538593 23.60998699 76.32538593 32.89453125 93.04296875 C39.14837409 98.84242148 45.54396873 100.86746032 54 101 C61.17801739 100.44784482 67.56929491 98.91971971 73 94 C80.36803589 85.10584532 82.06552155 75.95974851 82.20532227 64.59594727 C82.21522186 63.892668 82.22512146 63.18938873 82.23532104 62.46479797 C82.26663411 60.16536703 82.29157252 57.8659155 82.31640625 55.56640625 C82.33700194 53.96214799 82.35799906 52.35789484 82.37937927 50.75364685 C82.4343301 46.55010132 82.48385733 42.34650903 82.53222656 38.1428833 C82.58263982 33.8458647 82.63822196 29.54891324 82.69335938 25.25195312 C82.80061039 16.83469087 82.90164923 8.41737096 83 0 C90.59 0 98.18 0 106 0 C106.06804548 10.0930644 106.12297078 20.18597396 106.15543652 30.27921677 C106.17102622 34.96699362 106.19214067 39.65460405 106.22631836 44.34228516 C106.25915254 48.87457136 106.27690323 53.40669848 106.28463173 57.93909454 C106.29013239 59.6596756 106.30087259 61.38024894 106.31719017 63.10076141 C106.48359737 81.39053655 103.49956837 97.04842208 90.3515625 110.74609375 C79.0431686 121.58486996 67.38732754 125.87051574 51.63671875 126.03515625 C36.47872775 125.29087166 23.46208576 119.42555444 13.03515625 108.41015625 C4.13013026 97.86428094 -0.18189391 84.88600929 -0.11352539 71.18041992 C-0.11367142 70.40915771 -0.11381744 69.63789551 -0.1139679 68.84326172 C-0.11327378 66.305635 -0.10550492 63.76808258 -0.09765625 61.23046875 C-0.09579029 59.46641581 -0.09436723 57.70236236 -0.09336853 55.93830872 C-0.08955738 51.3039506 -0.07973909 46.66962401 -0.06866455 42.03527832 C-0.05842026 37.30282009 -0.05386445 32.57035675 -0.04882812 27.83789062 C-0.03811554 18.5585777 -0.02053012 9.27929641 0 0 Z " fill="#CDD2D6" transform="translate(533,793)"/>
<path d="M0 0 C4.70007253 3.62715464 8.71469807 7.29668076 12.27734375 12.046875 C7.29330207 18.08018862 1.85819072 23.5652921 -3.72265625 29.046875 C-6.33462325 26.99801863 -8.74677377 25.02145383 -11.03515625 22.609375 C-18.50407696 15.48784595 -27.39450216 12.04893459 -37.72265625 11.671875 C-49.11891975 12.1046445 -59.69635129 16.41629518 -67.53515625 24.796875 C-74.75173544 33.74951805 -78.18466726 43.57080976 -77.59765625 55.046875 C-76.22582244 67.3460747 -70.2356579 76.63839184 -60.875 84.5078125 C-51.4727903 91.23098967 -40.91983569 92.03178661 -29.72265625 91.046875 C-19.15014723 88.89081051 -11.12519794 82.51475272 -4.72265625 74.046875 C-0.94182586 75.57639275 1.12933013 77.86577709 3.77734375 80.921875 C6.52250548 84.07129 9.28868559 87.12614089 12.27734375 90.046875 C7.75287447 100.29618296 -2.88596223 106.57203977 -12.72265625 111.046875 C-29.03703169 117.27044049 -46.63668708 118.19931148 -62.95703125 111.3828125 C-71.40196164 107.53153674 -78.27622512 102.79286148 -84.72265625 96.046875 C-85.35429688 95.43457031 -85.9859375 94.82226562 -86.63671875 94.19140625 C-98.54934776 81.88518817 -102.2254732 65.72923226 -102.07006836 49.16967773 C-101.62930953 32.05281605 -95.2384889 17.71011348 -83.2890625 5.4140625 C-60.15417962 -15.92496189 -25.57640041 -18.34748954 0 0 Z " fill="#CDD2D6" transform="translate(1077.72265625,802.953125)"/>
<path d="M0 0 C131.01 0 262.02 0 397 0 C397 4.29 397 8.58 397 13 C265.99 13 134.98 13 0 13 C0 8.71 0 4.42 0 0 Z " fill="#CDD2D6" transform="translate(0,841)"/>
<path d="M0 0 C130.68 0 261.36 0 396 0 C396 4.29 396 8.58 396 13 C265.32 13 134.64 13 0 13 C0 8.71 0 4.42 0 0 Z " fill="#CDD2D6" transform="translate(1406,841)"/>
<path d="M0 0 C7.59 0 15.18 0 23 0 C23 40.59 23 81.18 23 123 C15.41 123 7.82 123 0 123 C0 82.41 0 41.82 0 0 Z " fill="#CDD2D6" transform="translate(1354,793)"/>
<path d="M0 0 C5.94 0 11.88 0 18 0 C18.99 2.31 19.98 4.62 21 7 C24.20595677 9.31462481 24.20595677 9.31462481 28 10 C31.36543533 9.31741077 31.36543533 9.31741077 34 7 C34.99 4.69 35.98 2.38 37 0 C42.94 0 48.88 0 55 0 C54.53482206 9.76873673 51.09205131 16.88707363 43.86328125 23.55859375 C37.12846651 28.76854478 29.23740688 28.8894378 21 28 C13.45823383 26.08896423 8.00520348 21.47583496 3.71484375 15.0859375 C0.96638354 10.14067934 0.35073523 5.61176366 0 0 Z " fill="#CDD2D6" transform="translate(1261,755)"/>
</svg>
