<?xml version="1.0" encoding="UTF-8"?>
<svg xmlns="http://www.w3.org/2000/svg" version="1.1" xmlns:xlink="http://www.w3.org/1999/xlink" viewBox="0 0 21 8">
  <defs>
    <style>
      .cls-1 {
        mask: url(#mask-5);
      }

      .cls-2 {
        fill: url(#linear-gradient-2);
      }

      .cls-3 {
        mask: url(#mask-1);
      }

      .cls-4 {
        opacity: .4;
      }

      .cls-4, .cls-5 {
        mix-blend-mode: overlay;
      }

      .cls-6 {
        fill: url(#radial-gradient-3);
      }

      .cls-6, .cls-7, .cls-8 {
        mix-blend-mode: multiply;
      }

      .cls-9 {
        mask: url(#mask-10);
      }

      .cls-10 {
        mask: url(#mask-6);
      }

      .cls-11 {
        mask: url(#mask-7);
      }

      .cls-12, .cls-13 {
        fill: #fff;
      }

      .cls-14 {
        mask: url(#mask);
      }

      .cls-15 {
        mix-blend-mode: soft-light;
      }

      .cls-16 {
        fill: none;
      }

      .cls-17 {
        fill: url(#linear-gradient-4);
      }

      .cls-18 {
        fill: url(#radial-gradient);
      }

      .cls-19 {
        mask: url(#mask-8);
      }

      .cls-20 {
        mask: url(#mask-2);
      }

      .cls-21 {
        fill: #f9f9f9;
      }

      .cls-22 {
        mask: url(#mask-9);
      }

      .cls-23 {
        fill: url(#linear-gradient-3);
      }

      .cls-24 {
        clip-path: url(#clippath-1);
      }

      .cls-25 {
        fill: url(#linear-gradient-5);
      }

      .cls-26 {
        isolation: isolate;
      }

      .cls-27 {
        fill: url(#linear-gradient-8);
      }

      .cls-13, .cls-28 {
        mix-blend-mode: screen;
      }

      .cls-7 {
        fill: url(#radial-gradient-5);
      }

      .cls-29 {
        fill: #444;
      }

      .cls-30 {
        clip-path: url(#clippath-3);
      }

      .cls-31 {
        fill: url(#radial-gradient-2);
      }

      .cls-32 {
        fill: url(#linear-gradient-7);
      }

      .cls-33 {
        fill: url(#linear-gradient-9);
      }

      .cls-34 {
        fill: url(#linear-gradient-6);
      }

      .cls-35 {
        clip-path: url(#clippath-2);
      }

      .cls-36 {
        mask: url(#mask-4);
      }

      .cls-8 {
        fill: url(#radial-gradient-4);
      }

      .cls-37 {
        fill: url(#linear-gradient);
      }

      .cls-38 {
        clip-path: url(#clippath);
      }

      .cls-39 {
        mask: url(#mask-3);
      }
    </style>
    <clipPath id="clippath">
      <rect class="cls-16" width="21" height="8"/>
    </clipPath>
    <clipPath id="clippath-1">
      <rect class="cls-16" x="-3.5" y="2.8" width="28" height="21" transform="translate(-2.8 23.8) rotate(-90)"/>
    </clipPath>
    <clipPath id="clippath-2">
      <rect class="cls-16" x="-30.7" y="-46.2" width="84" height="63" transform="translate(26 -3.4) rotate(-90)"/>
    </clipPath>
    <linearGradient id="linear-gradient" x1="-1211.7" y1="789.7" x2="-1153.8" y2="789.7" gradientTransform="translate(1166.7 -788.6)" gradientUnits="userSpaceOnUse">
      <stop offset="0" stop-color="#fff"/>
      <stop offset="0" stop-color="#fcfcfc"/>
      <stop offset=".1" stop-color="#bababa"/>
      <stop offset=".3" stop-color="#818181"/>
      <stop offset=".4" stop-color="#535353"/>
      <stop offset=".5" stop-color="#2f2f2f"/>
      <stop offset=".6" stop-color="#151515"/>
      <stop offset=".7" stop-color="#050505"/>
      <stop offset=".7" stop-color="#000"/>
    </linearGradient>
    <mask id="mask" x="-44.9" y="-26.1" width="54.5" height="54.6" maskUnits="userSpaceOnUse">
      <rect class="cls-37" x="-45" y="-26.1" width="54.6" height="54.5" transform="translate(-18.8 -16.5) rotate(-90)"/>
    </mask>
    <linearGradient id="linear-gradient-2" x1="-1226.1" y1="799.4" x2="-1168.2" y2="799.4" gradientTransform="translate(1190.8 -783.8)" xlink:href="#linear-gradient"/>
    <mask id="mask-1" x="-35.2" y="-11.7" width="54.5" height="54.6" maskUnits="userSpaceOnUse">
      <rect class="cls-2" x="-35.3" y="-11.6" width="54.6" height="54.5" transform="translate(-23.6 7.6) rotate(-90)"/>
    </mask>
    <linearGradient id="linear-gradient-3" x1="-1786.2" y1="1382.6" x2="-1728.3" y2="1382.6" gradientTransform="translate(-641.1 -1016.9) rotate(-72.9) scale(.8 .7) skewX(29.3)" xlink:href="#linear-gradient"/>
    <mask id="mask-2" x="-24.9" y="-24.5" width="54.5" height="54.6" maskUnits="userSpaceOnUse">
      <polygon class="cls-23" points="29.6 -24.5 16.8 17.3 -24.9 30.1 -12 -11.6 29.6 -24.5"/>
    </mask>
    <linearGradient id="linear-gradient-4" x1="-1834.6" y1="330.3" x2="-1834.6" y2="240.7" gradientTransform="translate(1819.8 -259.5)" gradientUnits="userSpaceOnUse">
      <stop offset=".2" stop-color="#000"/>
      <stop offset=".3" stop-color="#030303"/>
      <stop offset=".4" stop-color="#0f0f0f"/>
      <stop offset=".5" stop-color="#222"/>
      <stop offset=".6" stop-color="#3d3d3d"/>
      <stop offset=".7" stop-color="#606060"/>
      <stop offset=".8" stop-color="#8b8b8b"/>
      <stop offset=".9" stop-color="#bebebe"/>
      <stop offset="1" stop-color="#f7f7f7"/>
      <stop offset="1" stop-color="#fff"/>
    </linearGradient>
    <mask id="mask-3" x="-51.7" y="-10.9" width="73.8" height="73.8" maskUnits="userSpaceOnUse">
      <rect class="cls-17" x="-22.2" y="-18.8" width="14.8" height="89.6" transform="translate(-43.7 33.9) rotate(-135)"/>
    </mask>
    <linearGradient id="linear-gradient-5" x1="-1820.5" y1="364.1" x2="-1820.5" y2="274.5" gradientTransform="translate(1819.5 -327.2)" xlink:href="#linear-gradient-4"/>
    <mask id="mask-4" x="-37.8" y="-44.8" width="73.8" height="73.8" maskUnits="userSpaceOnUse">
      <rect class="cls-25" x="-8.3" y="-52.7" width="14.8" height="89.6" transform="translate(4 -14.2) rotate(-135)"/>
    </mask>
    <linearGradient id="linear-gradient-6" x1="121.7" y1="-664.8" x2="121.7" y2="-754.4" gradientTransform="translate(-133.4 714.7)" xlink:href="#linear-gradient-4"/>
    <mask id="mask-5" x="-48.7" y="-31.8" width="73.8" height="73.8" maskUnits="userSpaceOnUse">
      <rect class="cls-34" x="-19.2" y="-39.7" width="14.8" height="89.6" transform="translate(.2 9.8) rotate(45)"/>
    </mask>
    <linearGradient id="linear-gradient-7" x1="134.3" y1="-630.7" x2="134.3" y2="-720.3" gradientTransform="translate(-161.2 713.7)" xlink:href="#linear-gradient-4"/>
    <mask id="mask-6" x="-63.9" y="1.2" width="73.8" height="73.8" maskUnits="userSpaceOnUse">
      <rect class="cls-32" x="-34.4" y="-6.7" width="14.8" height="89.6" transform="translate(19.1 30.2) rotate(45)"/>
    </mask>
    <linearGradient id="linear-gradient-8" x1="-1831.1" y1="338.9" x2="-1831.1" y2="249.3" gradientTransform="translate(1819.9 -276.6)" xlink:href="#linear-gradient-4"/>
    <mask id="mask-7" x="-48.1" y="-19.5" width="73.8" height="73.8" maskUnits="userSpaceOnUse">
      <rect class="cls-27" x="-18.6" y="-27.3" width="14.8" height="89.6" transform="translate(-31.5 21.9) rotate(-135)"/>
    </mask>
    <linearGradient id="linear-gradient-9" x1="130.8" y1="-639.3" x2="130.8" y2="-728.9" gradientTransform="translate(-154.1 713.7)" xlink:href="#linear-gradient-4"/>
    <mask id="mask-8" x="-60.3" y="-7.3" width="73.8" height="73.8" maskUnits="userSpaceOnUse">
      <rect class="cls-33" x="-30.8" y="-15.2" width="14.8" height="89.6" transform="translate(14.1 25.2) rotate(45)"/>
    </mask>
    <radialGradient id="radial-gradient" cx="-1829.1" cy="317" fx="-1829.1" fy="317" r="20.8" gradientTransform="translate(1833.9 -293.8)" gradientUnits="userSpaceOnUse">
      <stop offset="0" stop-color="#b3b3b3"/>
      <stop offset=".1" stop-color="#a3a3a3"/>
      <stop offset=".4" stop-color="#797979"/>
      <stop offset=".7" stop-color="#363636"/>
      <stop offset="1" stop-color="#000"/>
    </radialGradient>
    <mask id="mask-9" x="-18.7" y="-.3" width="47" height="47" maskUnits="userSpaceOnUse">
      <rect class="cls-18" x=".6" y="-5.9" width="8.4" height="58.1" transform="translate(-8.2 43) rotate(-135)"/>
    </mask>
    <radialGradient id="radial-gradient-2" cx="-1813.7" cy="328.9" fx="-1813.7" fy="328.9" r="20.8" gradientTransform="translate(1816 -325)" xlink:href="#radial-gradient"/>
    <mask id="mask-10" x="-21.2" y="-19.6" width="47" height="47" maskUnits="userSpaceOnUse">
      <rect class="cls-31" x="-1.9" y="-25.2" width="8.4" height="58.1" transform="translate(1.2 8.3) rotate(-135)"/>
    </mask>
    <radialGradient id="radial-gradient-3" cx="-1361" cy="-2543.4" fx="-1361" fy="-2543.4" r="21.7" gradientTransform="translate(-1503.5 422.5) rotate(135) scale(1 .3)" gradientUnits="userSpaceOnUse">
      <stop offset="0" stop-color="#5c5c5c"/>
      <stop offset="0" stop-color="#636363"/>
      <stop offset="0" stop-color="#8c8c8c"/>
      <stop offset=".2" stop-color="#b0b0b0"/>
      <stop offset=".3" stop-color="#ccc"/>
      <stop offset=".4" stop-color="#e3e3e3"/>
      <stop offset=".5" stop-color="#f2f2f2"/>
      <stop offset=".6" stop-color="#fcfcfc"/>
      <stop offset=".7" stop-color="#fff"/>
    </radialGradient>
    <radialGradient id="radial-gradient-4" cx="-1379.5" cy="-2493.1" fx="-1379.5" fy="-2493.1" r="21.7" xlink:href="#radial-gradient-3"/>
    <radialGradient id="radial-gradient-5" cx="-1342.1" cy="-2521.6" fx="-1342.1" fy="-2521.6" r="21.7" xlink:href="#radial-gradient-3"/>
    <clipPath id="clippath-3">
      <rect class="cls-16" x="-3.5" y="2.8" width="28" height="21" transform="translate(-2.8 23.8) rotate(-90)"/>
    </clipPath>
  </defs>
  <!-- Generator: Adobe Illustrator 28.7.1, SVG Export Plug-In . SVG Version: 1.2.0 Build 142)  -->
  <g class="cls-26">
    <g id="Layer_1">
      <g class="cls-38">
        <g>
          <image width="22" height="29" transform="translate(-.3 -.9)" xlink:href="bg-01-1.png"/>
          <g class="cls-24">
            <g class="cls-35">
              <g>
                <g>
                  <g class="cls-14">
                    <polygon class="cls-13" points=".1 9.4 8.3 1.2 1.5 -5.6 -2.2 -5.6 -2.2 9.4 .1 9.4"/>
                  </g>
                  <g class="cls-3">
                    <polygon class="cls-13" points="11.8 9.4 -2.2 -4.6 -2.2 9.4 11.8 9.4"/>
                  </g>
                  <g class="cls-20">
                    <polygon class="cls-13" points="9.6 9.4 22.2 -3.3 19.9 -5.6 -2.2 -5.6 -2.2 9.4 9.6 9.4"/>
                  </g>
                </g>
                <g class="cls-5">
                  <g>
                    <g class="cls-39">
                      <path class="cls-29" d="M8.9,9.4l6.9-6.9c2-2,2-5.2,0-7.1-.4-.4-.8-.7-1.3-1h-4.5c-.5.2-.9.6-1.3,1L-2.2,6.2v3.2h11Z"/>
                    </g>
                    <g class="cls-36">
                      <polygon class="cls-29" points="-2.2 .5 3.9 -5.6 -2.2 -5.6 -2.2 .5"/>
                    </g>
                  </g>
                  <g>
                    <g class="cls-1">
                      <polygon class="cls-29" points="-2.2 2.7 6.1 -5.6 -2.2 -5.6 -2.2 2.7"/>
                    </g>
                    <g class="cls-10">
                      <path class="cls-29" d="M5.4,9.4c-.2-.9-.6-1.7-1.3-2.4-1.7-1.7-4.3-1.9-6.3-.7v3.1h7.6Z"/>
                    </g>
                  </g>
                </g>
                <g class="cls-15">
                  <g class="cls-11">
                    <polygon class="cls-21" points="3.9 9.4 18.9 -5.6 4.7 -5.6 -2.2 1.3 -2.2 9.4 3.9 9.4"/>
                  </g>
                  <g class="cls-19">
                    <path class="cls-21" d="M3.9,9.4l3.8-3.8c2-2,2-5.2,0-7.1-2-2-5.2-2-7.1,0L-2.2,1.3v8.2H3.9Z"/>
                  </g>
                </g>
                <g class="cls-22">
                  <g>
                    <polygon class="cls-12" points="21.3 9.4 26.3 4.5 26.1 4.3 20.9 9.4 21.3 9.4"/>
                    <polygon class="cls-12" points="19.9 9.4 25.5 3.8 25.3 3.6 19.5 9.4 19.9 9.4"/>
                    <polygon class="cls-12" points="18.4 9.4 24.8 3 24.6 2.8 18.1 9.4 18.4 9.4"/>
                    <polygon class="cls-12" points="17 9.4 24.1 2.3 23.9 2.1 16.6 9.4 17 9.4"/>
                    <polygon class="cls-12" points="15.6 9.4 23.4 1.6 23.2 1.4 15.2 9.4 15.6 9.4"/>
                  </g>
                </g>
                <g class="cls-9">
                  <g>
                    <polygon class="cls-12" points="-.5 9.4 14.5 -5.6 14.1 -5.6 -.9 9.4 -.5 9.4"/>
                    <polygon class="cls-12" points="-1.9 9.4 13.1 -5.6 12.7 -5.6 -2.2 9.3 -2.2 9.4 -1.9 9.4"/>
                    <polygon class="cls-12" points="-2.2 8.2 11.6 -5.6 11.3 -5.6 -2.2 7.9 -2.2 8.2"/>
                    <polygon class="cls-12" points="-2.2 6.8 10.2 -5.6 9.8 -5.6 -2.2 6.4 -2.2 6.8"/>
                    <polygon class="cls-12" points="-2.2 5.4 8.8 -5.6 8.4 -5.6 -2.2 5 -2.2 5.4"/>
                  </g>
                </g>
                <g>
                  <path class="cls-12" d="M6.4,7.7c-.1.1-.1.3,0,.4.1.1.3.1.4,0,.1-.1.1-.3,0-.4-.1-.1-.3-.1-.4,0Z"/>
                  <path class="cls-12" d="M7.5,6.6c-.1.1-.1.3,0,.4.1.1.3.1.4,0,.1-.1.1-.3,0-.4-.1-.1-.3-.1-.4,0Z"/>
                  <path class="cls-12" d="M8.6,5.5c-.1.1-.1.3,0,.4.1.1.3.1.4,0,.1-.1.1-.3,0-.4-.1-.1-.3-.1-.4,0Z"/>
                  <path class="cls-12" d="M9.7,4.4c-.1.1-.1.3,0,.4.1.1.3.1.4,0,.1-.1.1-.3,0-.4-.1-.1-.3-.1-.4,0Z"/>
                  <path class="cls-12" d="M10.8,3.3c-.1.1-.1.3,0,.4s.3.1.4,0c.1-.1.1-.3,0-.4-.1-.1-.3-.1-.4,0Z"/>
                  <path class="cls-12" d="M11.9,2.2c-.1.1-.1.3,0,.4.1.1.3.1.4,0,.1-.1.1-.3,0-.4-.1-.1-.3-.1-.4,0Z"/>
                  <path class="cls-12" d="M13,1.1c-.1.1-.1.3,0,.4.1.1.3.1.4,0,.1-.1.1-.3,0-.4-.1-.1-.3-.1-.4,0Z"/>
                  <path class="cls-12" d="M14.1,0c-.1.1-.1.3,0,.4.1.1.3.1.4,0,.1-.1.1-.3,0-.4-.1-.1-.3-.1-.4,0Z"/>
                </g>
                <path class="cls-6" d="M18.3,9.4c5.3-6.6,7.8-12.5,5.9-14.6l-14.6,14.6h8.7Z"/>
                <path class="cls-8" d="M-2.2,2.1c3.1,0,8.4-2.9,13.9-7.7H2.8L-2.2-.6v2.7Z"/>
                <path class="cls-7" d="M5.7,9.4c1.2-2.7,1.4-4.9.4-5.9L.1,9.4h5.6Z"/>
              </g>
            </g>
          </g>
          <g class="cls-28">
            <image width="22" height="29" transform="translate(-.3 -.9)" xlink:href="bg-01-2.png"/>
          </g>
          <g class="cls-30">
            <g class="cls-4">
              <path d="M0,7.7s0,0,0,0c0,0,0,0,0,0,0,0,0,0,0,0,0,0,0,0,0,0Z"/>
              <path d="M.9,7.9s0,0,0,0c0,0,0,0,0,0,0,0,0,0,0,0,0,0,0,0,0,0Z"/>
              <path d="M.5,7.5s0,0,0,0c0,0,0,0,0,0,0,0,0,0,0,0,0,0,0,0,0,0Z"/>
              <path d="M.2,7.2s0,0,0,0c0,0,0,0,0,0,0,0,0,0,0,0,0,0,0,0,0,0Z"/>
              <path d="M1.4,7.7s0,0,0,0,0,0,0,0c0,0,0,0,0,0,0,0,0,0,0,0Z"/>
              <path d="M1,7.3s0,0,0,0c0,0,0,0,0,0,0,0,0,0,0,0,0,0,0,0,0,0Z"/>
              <path d="M.7,7s0,0,0,0c0,0,0,0,0,0,0,0,0,0,0,0s0,0,0,0Z"/>
              <path d="M.4,6.7s0,0,0,0c0,0,0,0,0,0,0,0,0,0,0,0,0,0,0,0,0,0Z"/>
              <path d="M0,6.3s0,0,0,0c0,0,0,0,0,0,0,0,0,0,0,0,0,0,0,0,0,0Z"/>
              <path d="M2.2,7.9s0,0,0,0c0,0,0,0,0,0,0,0,0,0,0,0,0,0,0,0,0,0Z"/>
              <path d="M1.9,7.5s0,0,0,0c0,0,0,0,0,0,0,0,0,0,0,0,0,0,0,0,0,0Z"/>
              <path d="M1.6,7.2s0,0,0,0,0,0,0,0,0,0,0,0c0,0,0,0,0,0Z"/>
              <path d="M1.2,6.8s0,0,0,0,0,0,0,0,0,0,0,0c0,0,0,0,0,0Z"/>
              <path d="M.9,6.5s0,0,0,0c0,0,0,0,0,0,0,0,0,0,0,0,0,0,0,0,0,0Z"/>
              <path d="M.5,6.1s0,0,0,0c0,0,0,0,0,0,0,0,0,0,0,0,0,0,0,0,0,0Z"/>
              <path d="M.2,5.8s0,0,0,0c0,0,0,0,0,0,0,0,0,0,0,0,0,0,0,0,0,0Z"/>
              <path d="M2.8,7.7s0,0,0,0c0,0,0,0,0,0,0,0,0,0,0,0,0,0,0,0,0,0Z"/>
              <path d="M2.4,7.3s0,0,0,0c0,0,0,0,0,0,0,0,0,0,0,0,0,0,0,0,0,0Z"/>
              <path d="M2.1,7s0,0,0,0c0,0,0,0,0,0,0,0,0,0,0,0s0,0,0,0Z"/>
              <path d="M1.7,6.7s0,0,0,0c0,0,0,0,0,0,0,0,0,0,0,0s0,0,0,0Z"/>
              <path d="M1.4,6.3s0,0,0,0c0,0,0,0,0,0,0,0,0,0,0,0,0,0,0,0,0,0Z"/>
              <path d="M1,6s0,0,0,0c0,0,0,0,0,0,0,0,0,0,0,0,0,0,0,0,0,0Z"/>
              <path d="M.7,5.6s0,0,0,0,0,0,0,0c0,0,0,0,0,0,0,0,0,0,0,0Z"/>
              <path d="M.4,5.3s0,0,0,0c0,0,0,0,0,0,0,0,0,0,0,0,0,0,0,0,0,0Z"/>
              <path d="M0,4.9s0,0,0,0c0,0,0,0,0,0,0,0,0,0,0,0,0,0,0,0,0,0Z"/>
              <circle cx="3.6" cy="7.9" r="0"/>
              <path d="M3.3,7.5s0,0,0,0c0,0,0,0,0,0,0,0,0,0,0,0s0,0,0,0Z"/>
              <path d="M2.9,7.2s0,0,0,0c0,0,0,0,0,0,0,0,0,0,0,0,0,0,0,0,0,0Z"/>
              <path d="M2.6,6.8s0,0,0,0,0,0,0,0,0,0,0,0c0,0,0,0,0,0Z"/>
              <path d="M2.2,6.5s0,0,0,0c0,0,0,0,0,0s0,0,0,0c0,0,0,0,0,0Z"/>
              <path d="M1.9,6.1s0,0,0,0,0,0,0,0c0,0,0,0,0,0,0,0,0,0,0,0Z"/>
              <path d="M1.6,5.8s0,0,0,0c0,0,0,0,0,0,0,0,0,0,0,0s0,0,0,0Z"/>
              <path d="M1.2,5.5s0,0,0,0c0,0,0,0,0,0,0,0,0,0,0,0s0,0,0,0Z"/>
              <path d="M.9,5.1s0,0,0,0c0,0,0,0,0,0,0,0,0,0,0,0,0,0,0,0,0,0Z"/>
              <path d="M.5,4.8s0,0,0,0c0,0,0,0,0,0,0,0,0,0,0,0,0,0,0,0,0,0Z"/>
              <path d="M.2,4.4s0,0,0,0c0,0,0,0,0,0,0,0,0,0,0,0,0,0,0,0,0,0Z"/>
              <path d="M4.1,7.7s0,0,0,0,0,0,0,0c0,0,0,0,0,0,0,0,0,0,0,0Z"/>
              <path d="M3.8,7.3s0,0,0,0,0,0,0,0c0,0,0,0,0,0,0,0,0,0,0,0Z"/>
              <path d="M3.4,7s0,0,0,0c0,0,0,0,0,0,0,0,0,0,0,0,0,0,0,0,0,0Z"/>
              <path d="M3.1,6.7s0,0,0,0c0,0,0,0,0,0,0,0,0,0,0,0s0,0,0,0Z"/>
              <path d="M2.8,6.3s0,0,0,0c0,0,0,0,0,0,0,0,0,0,0,0,0,0,0,0,0,0Z"/>
              <path d="M2.4,6s0,0,0,0c0,0,0,0,0,0,0,0,0,0,0,0,0,0,0,0,0,0Z"/>
              <path d="M2.1,5.6s0,0,0,0c0,0,0,0,0,0,0,0,0,0,0,0,0,0,0,0,0,0Z"/>
              <path d="M1.7,5.3s0,0,0,0,0,0,0,0,0,0,0,0c0,0,0,0,0,0Z"/>
              <path d="M1.4,4.9s0,0,0,0c0,0,0,0,0,0,0,0,0,0,0,0,0,0,0,0,0,0Z"/>
              <path d="M1,4.6s0,0,0,0c0,0,0,0,0,0,0,0,0,0,0,0,0,0,0,0,0,0Z"/>
              <path d="M.7,4.3s0,0,0,0c0,0,0,0,0,0,0,0,0,0,0,0,0,0,0,0,0,0Z"/>
              <path d="M.4,3.9s0,0,0,0c0,0,0,0,0,0,0,0,0,0,0,0,0,0,0,0,0,0Z"/>
              <path d="M0,3.6s0,0,0,0c0,0,0,0,0,0,0,0,0,0,0,0,0,0,0,0,0,0Z"/>
              <path d="M5,7.9s0,0,0,0c0,0,0,0,0,0,0,0,0,0,0,0,0,0,0,0,0,0Z"/>
              <path d="M4.6,7.5s0,0,0,0c0,0,0,0,0,0,0,0,0,0,0,0,0,0,0,0,0,0Z"/>
              <path d="M4.3,7.2s0,0,0,0,0,0,0,0,0,0,0,0c0,0,0,0,0,0Z"/>
              <path d="M4,6.8s0,0,0,0c0,0,0,0,0,0,0,0,0,0,0,0s0,0,0,0Z"/>
              <path d="M3.6,6.5s0,0,0,0,0,0,0,0c0,0,0,0,0,0,0,0,0,0,0,0Z"/>
              <path d="M3.3,6.1s0,0,0,0c0,0,0,0,0,0,0,0,0,0,0,0,0,0,0,0,0,0Z"/>
              <path d="M2.9,5.8s0,0,0,0c0,0,0,0,0,0,0,0,0,0,0,0,0,0,0,0,0,0Z"/>
              <path d="M2.6,5.5s0,0,0,0c0,0,0,0,0,0,0,0,0,0,0,0,0,0,0,0,0,0Z"/>
              <path d="M2.2,5.1s0,0,0,0c0,0,0,0,0,0,0,0,0,0,0,0,0,0,0,0,0,0Z"/>
              <path d="M1.9,4.8s0,0,0,0,0,0,0,0c0,0,0,0,0,0,0,0,0,0,0,0Z"/>
              <path d="M1.6,4.4s0,0,0,0c0,0,0,0,0,0s0,0,0,0c0,0,0,0,0,0Z"/>
              <path d="M1.2,4.1s0,0,0,0c0,0,0,0,0,0,0,0,0,0,0,0,0,0,0,0,0,0Z"/>
              <path d="M.9,3.7s0,0,0,0,0,0,0,0c0,0,0,0,0,0,0,0,0,0,0,0Z"/>
              <path d="M.5,3.4s0,0,0,0c0,0,0,0,0,0,0,0,0,0,0,0,0,0,0,0,0,0Z"/>
              <path d="M.2,3.1s0,0,0,0c0,0,0,0,0,0,0,0,0,0,0,0,0,0,0,0,0,0Z"/>
              <path d="M5.5,7.7s0,0,0,0c0,0,0,0,0,0,0,0,0,0,0,0,0,0,0,0,0,0Z"/>
              <path d="M5.1,7.3s0,0,0,0c0,0,0,0,0,0,0,0,0,0,0,0,0,0,0,0,0,0Z"/>
              <path d="M4.8,7s0,0,0,0c0,0,0,0,0,0,0,0,0,0,0,0,0,0,0,0,0,0Z"/>
              <path d="M4.5,6.7s0,0,0,0c0,0,0,0,0,0,0,0,0,0,0,0,0,0,0,0,0,0Z"/>
              <path d="M4.1,6.3s0,0,0,0c0,0,0,0,0,0,0,0,0,0,0,0,0,0,0,0,0,0Z"/>
              <path d="M3.8,6s0,0,0,0c0,0,0,0,0,0,0,0,0,0,0,0,0,0,0,0,0,0Z"/>
              <path d="M3.4,5.6s0,0,0,0c0,0,0,0,0,0,0,0,0,0,0,0,0,0,0,0,0,0Z"/>
              <path d="M3.1,5.3s0,0,0,0c0,0,0,0,0,0,0,0,0,0,0,0s0,0,0,0Z"/>
              <path d="M2.8,4.9s0,0,0,0c0,0,0,0,0,0,0,0,0,0,0,0,0,0,0,0,0,0Z"/>
              <path d="M2.4,4.6s0,0,0,0c0,0,0,0,0,0,0,0,0,0,0,0,0,0,0,0,0,0Z"/>
              <path d="M2.1,4.3s0,0,0,0c0,0,0,0,0,0,0,0,0,0,0,0,0,0,0,0,0,0Z"/>
              <path d="M1.7,3.9s0,0,0,0,0,0,0,0c0,0,0,0,0,0,0,0,0,0,0,0Z"/>
              <path d="M1.4,3.6s0,0,0,0c0,0,0,0,0,0,0,0,0,0,0,0s0,0,0,0Z"/>
              <path d="M1,3.2s0,0,0,0c0,0,0,0,0,0,0,0,0,0,0,0s0,0,0,0Z"/>
              <path d="M.7,2.9s0,0,0,0,0,0,0,0,0,0,0,0c0,0,0,0,0,0Z"/>
              <path d="M.4,2.6s0,0,0,0c0,0,0,0,0,0,0,0,0,0,0,0,0,0,0,0,0,0Z"/>
              <path d="M0,2.2s0,0,0,0c0,0,0,0,0,0,0,0,0,0,0,0s0,0,0,0Z"/>
              <path d="M6.3,7.9s0,0,0,0c0,0,0,0,0,0,0,0,0,0,0,0,0,0,0,0,0,0Z"/>
              <path d="M6,7.5s0,0,0,0,0,0,0,0c0,0,0,0,0,0,0,0,0,0,0,0Z"/>
              <path d="M5.7,7.2s0,0,0,0c0,0,0,0,0,0,0,0,0,0,0,0,0,0,0,0,0,0Z"/>
              <path d="M5.3,6.8s0,0,0,0c0,0,0,0,0,0,0,0,0,0,0,0,0,0,0,0,0,0Z"/>
              <path d="M5,6.5s0,0,0,0c0,0,0,0,0,0,0,0,0,0,0,0,0,0,0,0,0,0Z"/>
              <path d="M4.6,6.1s0,0,0,0c0,0,0,0,0,0,0,0,0,0,0,0,0,0,0,0,0,0Z"/>
              <path d="M4.3,5.8s0,0,0,0c0,0,0,0,0,0,0,0,0,0,0,0,0,0,0,0,0,0Z"/>
              <path d="M4,5.5s0,0,0,0c0,0,0,0,0,0,0,0,0,0,0,0,0,0,0,0,0,0Z"/>
              <path d="M3.6,5.1s0,0,0,0c0,0,0,0,0,0,0,0,0,0,0,0,0,0,0,0,0,0Z"/>
              <path d="M3.3,4.8s0,0,0,0,0,0,0,0c0,0,0,0,0,0,0,0,0,0,0,0Z"/>
              <path d="M2.9,4.4s0,0,0,0c0,0,0,0,0,0,0,0,0,0,0,0,0,0,0,0,0,0Z"/>
              <path d="M2.6,4.1s0,0,0,0c0,0,0,0,0,0,0,0,0,0,0,0,0,0,0,0,0,0Z"/>
              <path d="M2.2,3.7s0,0,0,0c0,0,0,0,0,0,0,0,0,0,0,0,0,0,0,0,0,0Z"/>
              <path d="M1.9,3.4s0,0,0,0c0,0,0,0,0,0s0,0,0,0,0,0,0,0Z"/>
              <path d="M1.6,3.1s0,0,0,0,0,0,0,0c0,0,0,0,0,0s0,0,0,0Z"/>
              <path d="M1.2,2.7s0,0,0,0c0,0,0,0,0,0,0,0,0,0,0,0s0,0,0,0Z"/>
              <path d="M.9,2.4s0,0,0,0c0,0,0,0,0,0,0,0,0,0,0,0,0,0,0,0,0,0Z"/>
              <path d="M.5,2s0,0,0,0c0,0,0,0,0,0,0,0,0,0,0,0,0,0,0,0,0,0Z"/>
              <path d="M.2,1.7s0,0,0,0c0,0,0,0,0,0,0,0,0,0,0,0,0,0,0,0,0,0Z"/>
              <path d="M6.9,7.7s0,0,0,0c0,0,0,0,0,0,0,0,0,0,0,0s0,0,0,0Z"/>
              <path d="M6.5,7.3s0,0,0,0c0,0,0,0,0,0,0,0,0,0,0,0,0,0,0,0,0,0Z"/>
              <path d="M6.2,7s0,0,0,0c0,0,0,0,0,0s0,0,0,0c0,0,0,0,0,0Z"/>
              <path d="M5.8,6.7s0,0,0,0,0,0,0,0,0,0,0,0c0,0,0,0,0,0Z"/>
              <path d="M5.5,6.3s0,0,0,0c0,0,0,0,0,0,0,0,0,0,0,0,0,0,0,0,0,0Z"/>
              <path d="M5.1,6s0,0,0,0c0,0,0,0,0,0,0,0,0,0,0,0,0,0,0,0,0,0Z"/>
              <path d="M4.8,5.6s0,0,0,0c0,0,0,0,0,0,0,0,0,0,0,0,0,0,0,0,0,0Z"/>
              <path d="M4.5,5.3s0,0,0,0c0,0,0,0,0,0,0,0,0,0,0,0,0,0,0,0,0,0Z"/>
              <path d="M4.1,4.9s0,0,0,0c0,0,0,0,0,0,0,0,0,0,0,0,0,0,0,0,0,0Z"/>
              <path d="M3.8,4.6s0,0,0,0c0,0,0,0,0,0s0,0,0,0,0,0,0,0Z"/>
              <path d="M3.4,4.3s0,0,0,0c0,0,0,0,0,0,0,0,0,0,0,0,0,0,0,0,0,0Z"/>
              <path d="M3.1,3.9s0,0,0,0,0,0,0,0c0,0,0,0,0,0,0,0,0,0,0,0Z"/>
              <path d="M2.8,3.6s0,0,0,0c0,0,0,0,0,0,0,0,0,0,0,0,0,0,0,0,0,0Z"/>
              <path d="M2.4,3.2s0,0,0,0c0,0,0,0,0,0,0,0,0,0,0,0,0,0,0,0,0,0Z"/>
              <path d="M2.1,2.9s0,0,0,0c0,0,0,0,0,0,0,0,0,0,0,0s0,0,0,0Z"/>
              <path d="M1.7,2.6s0,0,0,0c0,0,0,0,0,0s0,0,0,0c0,0,0,0,0,0Z"/>
              <path d="M1.4,2.2s0,0,0,0,0,0,0,0c0,0,0,0,0,0,0,0,0,0,0,0Z"/>
              <path d="M1,1.9s0,0,0,0c0,0,0,0,0,0,0,0,0,0,0,0s0,0,0,0Z"/>
              <path d="M.7,1.5s0,0,0,0c0,0,0,0,0,0,0,0,0,0,0,0,0,0,0,0,0,0Z"/>
              <path d="M.4,1.2s0,0,0,0c0,0,0,0,0,0,0,0,0,0,0,0,0,0,0,0,0,0Z"/>
              <path d="M0,.8s0,0,0,0c0,0,0,0,0,0,0,0,0,0,0,0,0,0,0,0,0,0Z"/>
              <path d="M7.7,7.9s0,0,0,0c0,0,0,0,0,0s0,0,0,0c0,0,0,0,0,0Z"/>
              <path d="M7.4,7.5s0,0,0,0c0,0,0,0,0,0,0,0,0,0,0,0,0,0,0,0,0,0Z"/>
              <path d="M7,7.2s0,0,0,0,0,0,0,0c0,0,0,0,0,0,0,0,0,0,0,0Z"/>
              <path d="M6.7,6.8s0,0,0,0c0,0,0,0,0,0s0,0,0,0,0,0,0,0Z"/>
              <path d="M6.3,6.5s0,0,0,0c0,0,0,0,0,0s0,0,0,0c0,0,0,0,0,0Z"/>
              <path d="M6,6.1s0,0,0,0c0,0,0,0,0,0s0,0,0,0,0,0,0,0Z"/>
              <circle cx="5.7" cy="5.8" r="0"/>
              <path d="M5.3,5.5s0,0,0,0c0,0,0,0,0,0,0,0,0,0,0,0s0,0,0,0Z"/>
              <path d="M5,5.1s0,0,0,0c0,0,0,0,0,0,0,0,0,0,0,0,0,0,0,0,0,0Z"/>
              <path d="M4.6,4.8s0,0,0,0c0,0,0,0,0,0,0,0,0,0,0,0,0,0,0,0,0,0Z"/>
              <path d="M4.3,4.4s0,0,0,0c0,0,0,0,0,0,0,0,0,0,0,0,0,0,0,0,0,0Z"/>
              <path d="M4,4.1s0,0,0,0,0,0,0,0c0,0,0,0,0,0,0,0,0,0,0,0Z"/>
              <path d="M3.6,3.7s0,0,0,0c0,0,0,0,0,0s0,0,0,0c0,0,0,0,0,0Z"/>
              <path d="M3.3,3.4s0,0,0,0c0,0,0,0,0,0s0,0,0,0c0,0,0,0,0,0Z"/>
              <path d="M2.9,3.1s0,0,0,0c0,0,0,0,0,0s0,0,0,0c0,0,0,0,0,0Z"/>
              <path d="M2.6,2.7s0,0,0,0c0,0,0,0,0,0,0,0,0,0,0,0,0,0,0,0,0,0Z"/>
              <path d="M2.2,2.4s0,0,0,0c0,0,0,0,0,0,0,0,0,0,0,0,0,0,0,0,0,0Z"/>
              <path d="M1.9,2s0,0,0,0c0,0,0,0,0,0s0,0,0,0,0,0,0,0Z"/>
              <path d="M1.6,1.7s0,0,0,0c0,0,0,0,0,0s0,0,0,0c0,0,0,0,0,0Z"/>
              <path d="M1.2,1.4s0,0,0,0c0,0,0,0,0,0s0,0,0,0c0,0,0,0,0,0Z"/>
              <path d="M.9,1s0,0,0,0,0,0,0,0,0,0,0,0c0,0,0,0,0,0Z"/>
              <path d="M.5.7s0,0,0,0c0,0,0,0,0,0,0,0,0,0,0,0,0,0,0,0,0,0Z"/>
              <path d="M.2.3s0,0,0,0c0,0,0,0,0,0,0,0,0,0,0,0,0,0,0,0,0,0Z"/>
              <path d="M8.2,7.7s0,0,0,0c0,0,0,0,0,0s0,0,0,0c0,0,0,0,0,0Z"/>
              <path d="M7.9,7.3s0,0,0,0c0,0,0,0,0,0s0,0,0,0,0,0,0,0Z"/>
              <circle cx="7.5" cy="7" r="0"/>
              <path d="M7.2,6.7s0,0,0,0,0,0,0,0,0,0,0,0c0,0,0,0,0,0Z"/>
              <path d="M6.9,6.3s0,0,0,0,0,0,0,0,0,0,0,0c0,0,0,0,0,0Z"/>
              <path d="M6.5,6s0,0,0,0,0,0,0,0,0,0,0,0c0,0,0,0,0,0Z"/>
              <path d="M6.2,5.6s0,0,0,0,0,0,0,0,0,0,0,0c0,0,0,0,0,0Z"/>
              <path d="M5.8,5.3s0,0,0,0c0,0,0,0,0,0s0,0,0,0c0,0,0,0,0,0Z"/>
              <path d="M5.5,4.9s0,0,0,0,0,0,0,0,0,0,0,0c0,0,0,0,0,0Z"/>
              <path d="M5.1,4.6s0,0,0,0c0,0,0,0,0,0,0,0,0,0,0,0s0,0,0,0Z"/>
              <path d="M4.8,4.3s0,0,0,0c0,0,0,0,0,0,0,0,0,0,0,0,0,0,0,0,0,0Z"/>
              <path d="M4.5,3.9s0,0,0,0c0,0,0,0,0,0,0,0,0,0,0,0,0,0,0,0,0,0Z"/>
              <path d="M4.1,3.6s0,0,0,0c0,0,0,0,0,0s0,0,0,0,0,0,0,0Z"/>
              <path d="M3.8,3.2s0,0,0,0c0,0,0,0,0,0,0,0,0,0,0,0s0,0,0,0Z"/>
              <path d="M3.4,2.9s0,0,0,0,0,0,0,0,0,0,0,0c0,0,0,0,0,0Z"/>
              <path d="M3.1,2.6s0,0,0,0c0,0,0,0,0,0s0,0,0,0c0,0,0,0,0,0Z"/>
              <path d="M2.8,2.2s0,0,0,0c0,0,0,0,0,0,0,0,0,0,0,0,0,0,0,0,0,0Z"/>
              <path d="M2.4,1.9s0,0,0,0c0,0,0,0,0,0,0,0,0,0,0,0,0,0,0,0,0,0Z"/>
              <path d="M2.1,1.5s0,0,0,0,0,0,0,0c0,0,0,0,0,0,0,0,0,0,0,0Z"/>
              <path d="M1.7,1.2s0,0,0,0,0,0,0,0,0,0,0,0c0,0,0,0,0,0Z"/>
              <path d="M1.4.8s0,0,0,0c0,0,0,0,0,0,0,0,0,0,0,0s0,0,0,0Z"/>
              <path d="M1,.5s0,0,0,0c0,0,0,0,0,0,0,0,0,0,0,0s0,0,0,0Z"/>
              <path d="M.7.2s0,0,0,0,0,0,0,0,0,0,0,0c0,0,0,0,0,0Z"/>
              <path d="M9.1,7.8s0,0,0,0,0,0,0,0c0,0,0,0,0,0s0,0,0,0Z"/>
              <path d="M8.7,7.5s0,0,0,0c0,0,0,0,0,0,0,0,0,0,0,0s0,0,0,0Z"/>
              <path d="M8.4,7.2s0,0,0,0c0,0,0,0,0,0s0,0,0,0c0,0,0,0,0,0Z"/>
              <path d="M8.1,6.8s0,0,0,0c0,0,0,0,0,0,0,0,0,0,0,0,0,0,0,0,0,0Z"/>
              <path d="M7.7,6.5s0,0,0,0,0,0,0,0c0,0,0,0,0,0,0,0,0,0,0,0Z"/>
              <path d="M7.4,6.1s0,0,0,0c0,0,0,0,0,0,0,0,0,0,0,0s0,0,0,0Z"/>
              <path d="M7,5.8s0,0,0,0c0,0,0,0,0,0,0,0,0,0,0,0,0,0,0,0,0,0Z"/>
              <path d="M6.7,5.5s0,0,0,0c0,0,0,0,0,0,0,0,0,0,0,0,0,0,0,0,0,0Z"/>
              <path d="M6.3,5.1s0,0,0,0c0,0,0,0,0,0,0,0,0,0,0,0,0,0,0,0,0,0Z"/>
              <circle cx="6" cy="4.8" r="0"/>
              <circle cx="5.7" cy="4.4" r="0"/>
              <path d="M5.3,4.1s0,0,0,0c0,0,0,0,0,0,0,0,0,0,0,0,0,0,0,0,0,0Z"/>
              <path d="M5,3.7s0,0,0,0c0,0,0,0,0,0,0,0,0,0,0,0,0,0,0,0,0,0Z"/>
              <path d="M4.6,3.4s0,0,0,0c0,0,0,0,0,0,0,0,0,0,0,0s0,0,0,0Z"/>
              <path d="M4.3,3.1s0,0,0,0,0,0,0,0c0,0,0,0,0,0,0,0,0,0,0,0Z"/>
              <path d="M4,2.7s0,0,0,0c0,0,0,0,0,0s0,0,0,0,0,0,0,0Z"/>
              <path d="M3.6,2.4s0,0,0,0c0,0,0,0,0,0,0,0,0,0,0,0,0,0,0,0,0,0Z"/>
              <path d="M3.3,2s0,0,0,0c0,0,0,0,0,0s0,0,0,0c0,0,0,0,0,0Z"/>
              <path d="M2.9,1.7s0,0,0,0c0,0,0,0,0,0,0,0,0,0,0,0,0,0,0,0,0,0Z"/>
              <path d="M2.6,1.4s0,0,0,0c0,0,0,0,0,0,0,0,0,0,0,0,0,0,0,0,0,0Z"/>
              <path d="M2.2,1s0,0,0,0c0,0,0,0,0,0,0,0,0,0,0,0s0,0,0,0Z"/>
              <path d="M1.9.7s0,0,0,0c0,0,0,0,0,0,0,0,0,0,0,0,0,0,0,0,0,0Z"/>
              <path d="M1.6.3s0,0,0,0,0,0,0,0,0,0,0,0c0,0,0,0,0,0Z"/>
              <path d="M1.2,0s0,0,0,0,0,0,0,0c0,0,0,0,0,0s0,0,0,0Z"/>
              <path d="M9.6,7.7s0,0,0,0c0,0,0,0,0,0,0,0,0,0,0,0,0,0,0,0,0,0Z"/>
              <path d="M9.3,7.3s0,0,0,0c0,0,0,0,0,0s0,0,0,0,0,0,0,0Z"/>
              <path d="M8.9,7s0,0,0,0c0,0,0,0,0,0,0,0,0,0,0,0,0,0,0,0,0,0Z"/>
              <path d="M8.6,6.7s0,0,0,0c0,0,0,0,0,0,0,0,0,0,0,0,0,0,0,0,0,0Z"/>
              <circle cx="8.2" cy="6.3" r="0"/>
              <path d="M7.9,6s0,0,0,0c0,0,0,0,0,0,0,0,0,0,0,0,0,0,0,0,0,0Z"/>
              <path d="M7.5,5.6s0,0,0,0c0,0,0,0,0,0,0,0,0,0,0,0,0,0,0,0,0,0Z"/>
              <path d="M7.2,5.3s0,0,0,0c0,0,0,0,0,0s0,0,0,0c0,0,0,0,0,0Z"/>
              <path d="M6.9,4.9s0,0,0,0c0,0,0,0,0,0,0,0,0,0,0,0,0,0,0,0,0,0Z"/>
              <path d="M6.5,4.6s0,0,0,0,0,0,0,0c0,0,0,0,0,0s0,0,0,0Z"/>
              <path d="M6.2,4.3s0,0,0,0,0,0,0,0c0,0,0,0,0,0s0,0,0,0Z"/>
              <path d="M5.8,3.9s0,0,0,0,0,0,0,0c0,0,0,0,0,0,0,0,0,0,0,0Z"/>
              <path d="M5.5,3.6s0,0,0,0c0,0,0,0,0,0,0,0,0,0,0,0,0,0,0,0,0,0Z"/>
              <path d="M5.1,3.2s0,0,0,0c0,0,0,0,0,0,0,0,0,0,0,0,0,0,0,0,0,0Z"/>
              <path d="M4.8,2.9s0,0,0,0c0,0,0,0,0,0,0,0,0,0,0,0s0,0,0,0Z"/>
              <path d="M4.5,2.6s0,0,0,0c0,0,0,0,0,0,0,0,0,0,0,0,0,0,0,0,0,0Z"/>
              <path d="M4.1,2.2s0,0,0,0c0,0,0,0,0,0,0,0,0,0,0,0,0,0,0,0,0,0Z"/>
              <path d="M3.8,1.9s0,0,0,0c0,0,0,0,0,0,0,0,0,0,0,0s0,0,0,0Z"/>
              <path d="M3.4,1.5s0,0,0,0c0,0,0,0,0,0,0,0,0,0,0,0,0,0,0,0,0,0Z"/>
              <path d="M3.1,1.2s0,0,0,0,0,0,0,0,0,0,0,0c0,0,0,0,0,0Z"/>
              <path d="M2.8.8s0,0,0,0c0,0,0,0,0,0,0,0,0,0,0,0,0,0,0,0,0,0Z"/>
              <path d="M2.4.5s0,0,0,0c0,0,0,0,0,0,0,0,0,0,0,0,0,0,0,0,0,0Z"/>
              <path d="M2.1.2s0,0,0,0c0,0,0,0,0,0,0,0,0,0,0,0s0,0,0,0Z"/>
              <path d="M10.5,7.8s0,0,0,0c0,0,0,0,0,0s0,0,0,0c0,0,0,0,0,0Z"/>
              <path d="M10.1,7.5s0,0,0,0c0,0,0,0,0,0,0,0,0,0,0,0,0,0,0,0,0,0Z"/>
              <path d="M9.8,7.2s0,0,0,0c0,0,0,0,0,0,0,0,0,0,0,0s0,0,0,0Z"/>
              <path d="M9.4,6.8s0,0,0,0c0,0,0,0,0,0,0,0,0,0,0,0s0,0,0,0Z"/>
              <path d="M9.1,6.5s0,0,0,0c0,0,0,0,0,0,0,0,0,0,0,0,0,0,0,0,0,0Z"/>
              <path d="M8.7,6.1s0,0,0,0,0,0,0,0c0,0,0,0,0,0,0,0,0,0,0,0Z"/>
              <path d="M8.4,5.8s0,0,0,0c0,0,0,0,0,0,0,0,0,0,0,0s0,0,0,0Z"/>
              <path d="M8.1,5.5s0,0,0,0c0,0,0,0,0,0,0,0,0,0,0,0s0,0,0,0Z"/>
              <path d="M7.7,5.1s0,0,0,0c0,0,0,0,0,0,0,0,0,0,0,0s0,0,0,0Z"/>
              <path d="M7.4,4.8s0,0,0,0c0,0,0,0,0,0,0,0,0,0,0,0s0,0,0,0Z"/>
              <path d="M7,4.4s0,0,0,0c0,0,0,0,0,0,0,0,0,0,0,0,0,0,0,0,0,0Z"/>
              <path d="M6.7,4.1s0,0,0,0c0,0,0,0,0,0,0,0,0,0,0,0s0,0,0,0Z"/>
              <path d="M6.3,3.7s0,0,0,0c0,0,0,0,0,0,0,0,0,0,0,0,0,0,0,0,0,0Z"/>
              <path d="M6,3.4s0,0,0,0,0,0,0,0c0,0,0,0,0,0,0,0,0,0,0,0Z"/>
              <path d="M5.7,3.1s0,0,0,0,0,0,0,0c0,0,0,0,0,0,0,0,0,0,0,0Z"/>
              <path d="M5.3,2.7s0,0,0,0,0,0,0,0c0,0,0,0,0,0,0,0,0,0,0,0Z"/>
              <path d="M5,2.4s0,0,0,0c0,0,0,0,0,0,0,0,0,0,0,0,0,0,0,0,0,0Z"/>
              <path d="M4.6,2s0,0,0,0c0,0,0,0,0,0,0,0,0,0,0,0s0,0,0,0Z"/>
              <path d="M4.3,1.7s0,0,0,0c0,0,0,0,0,0s0,0,0,0,0,0,0,0Z"/>
              <path d="M4,1.4s0,0,0,0,0,0,0,0c0,0,0,0,0,0,0,0,0,0,0,0Z"/>
              <path d="M3.6,1s0,0,0,0c0,0,0,0,0,0,0,0,0,0,0,0,0,0,0,0,0,0Z"/>
              <path d="M3.3.7s0,0,0,0c0,0,0,0,0,0,0,0,0,0,0,0,0,0,0,0,0,0Z"/>
              <path d="M2.9.3s0,0,0,0c0,0,0,0,0,0,0,0,0,0,0,0,0,0,0,0,0,0Z"/>
              <path d="M2.6,0s0,0,0,0c0,0,0,0,0,0,0,0,0,0,0,0,0,0,0,0,0,0Z"/>
              <path d="M11,7.7s0,0,0,0c0,0,0,0,0,0s0,0,0,0c0,0,0,0,0,0Z"/>
              <path d="M10.6,7.3s0,0,0,0c0,0,0,0,0,0s0,0,0,0c0,0,0,0,0,0Z"/>
              <path d="M10.3,7s0,0,0,0c0,0,0,0,0,0,0,0,0,0,0,0,0,0,0,0,0,0Z"/>
              <path d="M9.9,6.7s0,0,0,0c0,0,0,0,0,0,0,0,0,0,0,0,0,0,0,0,0,0Z"/>
              <path d="M9.6,6.3s0,0,0,0c0,0,0,0,0,0,0,0,0,0,0,0,0,0,0,0,0,0Z"/>
              <path d="M9.3,6s0,0,0,0c0,0,0,0,0,0,0,0,0,0,0,0s0,0,0,0Z"/>
              <path d="M8.9,5.6s0,0,0,0,0,0,0,0,0,0,0,0c0,0,0,0,0,0Z"/>
              <path d="M8.6,5.3s0,0,0,0c0,0,0,0,0,0s0,0,0,0,0,0,0,0Z"/>
              <path d="M8.2,4.9s0,0,0,0c0,0,0,0,0,0,0,0,0,0,0,0,0,0,0,0,0,0Z"/>
              <path d="M7.9,4.6s0,0,0,0c0,0,0,0,0,0,0,0,0,0,0,0,0,0,0,0,0,0Z"/>
              <path d="M7.5,4.3s0,0,0,0c0,0,0,0,0,0,0,0,0,0,0,0s0,0,0,0Z"/>
              <path d="M7.2,3.9s0,0,0,0,0,0,0,0c0,0,0,0,0,0s0,0,0,0Z"/>
              <path d="M6.9,3.6s0,0,0,0,0,0,0,0c0,0,0,0,0,0s0,0,0,0Z"/>
              <path d="M6.5,3.2s0,0,0,0,0,0,0,0c0,0,0,0,0,0,0,0,0,0,0,0Z"/>
              <path d="M6.2,2.9s0,0,0,0,0,0,0,0c0,0,0,0,0,0,0,0,0,0,0,0Z"/>
              <path d="M5.8,2.6s0,0,0,0c0,0,0,0,0,0,0,0,0,0,0,0,0,0,0,0,0,0Z"/>
              <path d="M5.5,2.2s0,0,0,0c0,0,0,0,0,0,0,0,0,0,0,0,0,0,0,0,0,0Z"/>
              <path d="M5.1,1.9s0,0,0,0c0,0,0,0,0,0,0,0,0,0,0,0,0,0,0,0,0,0Z"/>
              <path d="M4.8,1.5s0,0,0,0c0,0,0,0,0,0,0,0,0,0,0,0,0,0,0,0,0,0Z"/>
              <path d="M4.5,1.2s0,0,0,0c0,0,0,0,0,0,0,0,0,0,0,0,0,0,0,0,0,0Z"/>
              <path d="M4.1.8s0,0,0,0c0,0,0,0,0,0s0,0,0,0,0,0,0,0Z"/>
              <path d="M3.8.5s0,0,0,0c0,0,0,0,0,0,0,0,0,0,0,0s0,0,0,0Z"/>
              <path d="M3.4.2s0,0,0,0,0,0,0,0,0,0,0,0c0,0,0,0,0,0Z"/>
              <path d="M11.8,7.8s0,0,0,0c0,0,0,0,0,0s0,0,0,0c0,0,0,0,0,0Z"/>
              <path d="M11.5,7.5s0,0,0,0c0,0,0,0,0,0,0,0,0,0,0,0,0,0,0,0,0,0Z"/>
              <path d="M11.1,7.2s0,0,0,0c0,0,0,0,0,0,0,0,0,0,0,0s0,0,0,0Z"/>
              <path d="M10.8,6.8s0,0,0,0,0,0,0,0,0,0,0,0c0,0,0,0,0,0Z"/>
              <path d="M10.5,6.5s0,0,0,0c0,0,0,0,0,0s0,0,0,0c0,0,0,0,0,0Z"/>
              <path d="M10.1,6.1s0,0,0,0c0,0,0,0,0,0,0,0,0,0,0,0,0,0,0,0,0,0Z"/>
              <path d="M9.8,5.8s0,0,0,0c0,0,0,0,0,0,0,0,0,0,0,0s0,0,0,0Z"/>
              <path d="M9.4,5.5s0,0,0,0c0,0,0,0,0,0,0,0,0,0,0,0,0,0,0,0,0,0Z"/>
              <path d="M9.1,5.1s0,0,0,0c0,0,0,0,0,0,0,0,0,0,0,0,0,0,0,0,0,0Z"/>
              <path d="M8.7,4.8s0,0,0,0c0,0,0,0,0,0,0,0,0,0,0,0,0,0,0,0,0,0Z"/>
              <path d="M8.4,4.4s0,0,0,0c0,0,0,0,0,0,0,0,0,0,0,0s0,0,0,0Z"/>
              <path d="M8.1,4.1s0,0,0,0c0,0,0,0,0,0,0,0,0,0,0,0,0,0,0,0,0,0Z"/>
              <path d="M7.7,3.7s0,0,0,0c0,0,0,0,0,0s0,0,0,0c0,0,0,0,0,0Z"/>
              <path d="M7.4,3.4s0,0,0,0c0,0,0,0,0,0s0,0,0,0c0,0,0,0,0,0Z"/>
              <path d="M7,3.1s0,0,0,0c0,0,0,0,0,0s0,0,0,0c0,0,0,0,0,0Z"/>
              <path d="M6.7,2.7s0,0,0,0c0,0,0,0,0,0s0,0,0,0c0,0,0,0,0,0Z"/>
              <path d="M6.3,2.4s0,0,0,0c0,0,0,0,0,0,0,0,0,0,0,0,0,0,0,0,0,0Z"/>
              <path d="M6,2s0,0,0,0,0,0,0,0c0,0,0,0,0,0,0,0,0,0,0,0Z"/>
              <path d="M5.7,1.7s0,0,0,0c0,0,0,0,0,0,0,0,0,0,0,0,0,0,0,0,0,0Z"/>
              <path d="M5.3,1.4s0,0,0,0c0,0,0,0,0,0,0,0,0,0,0,0,0,0,0,0,0,0Z"/>
              <path d="M5,1s0,0,0,0c0,0,0,0,0,0,0,0,0,0,0,0s0,0,0,0Z"/>
              <path d="M4.6.7s0,0,0,0c0,0,0,0,0,0,0,0,0,0,0,0,0,0,0,0,0,0Z"/>
              <circle cx="4.3" cy=".3" r="0"/>
              <path d="M4,0s0,0,0,0c0,0,0,0,0,0s0,0,0,0,0,0,0,0Z"/>
              <path d="M12.3,7.7s0,0,0,0,0,0,0,0c0,0,0,0,0,0,0,0,0,0,0,0Z"/>
              <path d="M12,7.3s0,0,0,0,0,0,0,0c0,0,0,0,0,0,0,0,0,0,0,0Z"/>
              <path d="M11.6,7s0,0,0,0c0,0,0,0,0,0,0,0,0,0,0,0,0,0,0,0,0,0Z"/>
              <circle cx="11.3" cy="6.7" r="0"/>
              <circle cx="11" cy="6.3" r="0"/>
              <path d="M10.6,6s0,0,0,0,0,0,0,0,0,0,0,0c0,0,0,0,0,0Z"/>
              <path d="M10.3,5.6s0,0,0,0,0,0,0,0c0,0,0,0,0,0,0,0,0,0,0,0Z"/>
              <path d="M9.9,5.3s0,0,0,0c0,0,0,0,0,0,0,0,0,0,0,0s0,0,0,0Z"/>
              <path d="M9.6,4.9s0,0,0,0c0,0,0,0,0,0,0,0,0,0,0,0,0,0,0,0,0,0Z"/>
              <path d="M9.3,4.6s0,0,0,0c0,0,0,0,0,0,0,0,0,0,0,0,0,0,0,0,0,0Z"/>
              <path d="M8.9,4.3s0,0,0,0,0,0,0,0c0,0,0,0,0,0,0,0,0,0,0,0Z"/>
              <path d="M8.6,3.9s0,0,0,0,0,0,0,0c0,0,0,0,0,0,0,0,0,0,0,0Z"/>
              <path d="M8.2,3.6s0,0,0,0,0,0,0,0c0,0,0,0,0,0,0,0,0,0,0,0Z"/>
              <path d="M7.9,3.2s0,0,0,0c0,0,0,0,0,0,0,0,0,0,0,0s0,0,0,0Z"/>
              <path d="M7.5,2.9s0,0,0,0c0,0,0,0,0,0,0,0,0,0,0,0,0,0,0,0,0,0Z"/>
              <path d="M7.2,2.6s0,0,0,0c0,0,0,0,0,0,0,0,0,0,0,0,0,0,0,0,0,0Z"/>
              <path d="M6.9,2.2s0,0,0,0c0,0,0,0,0,0,0,0,0,0,0,0s0,0,0,0Z"/>
              <path d="M6.5,1.9s0,0,0,0c0,0,0,0,0,0,0,0,0,0,0,0s0,0,0,0Z"/>
              <path d="M6.2,1.5s0,0,0,0c0,0,0,0,0,0,0,0,0,0,0,0,0,0,0,0,0,0Z"/>
              <path d="M5.8,1.2s0,0,0,0c0,0,0,0,0,0,0,0,0,0,0,0,0,0,0,0,0,0Z"/>
              <path d="M5.5.8s0,0,0,0c0,0,0,0,0,0,0,0,0,0,0,0,0,0,0,0,0,0Z"/>
              <path d="M5.1.5s0,0,0,0c0,0,0,0,0,0,0,0,0,0,0,0,0,0,0,0,0,0Z"/>
              <path d="M4.8.2s0,0,0,0c0,0,0,0,0,0,0,0,0,0,0,0s0,0,0,0Z"/>
              <path d="M13.2,7.8s0,0,0,0c0,0,0,0,0,0,0,0,0,0,0,0,0,0,0,0,0,0Z"/>
              <path d="M12.8,7.5s0,0,0,0c0,0,0,0,0,0,0,0,0,0,0,0,0,0,0,0,0,0Z"/>
              <path d="M12.5,7.2s0,0,0,0,0,0,0,0c0,0,0,0,0,0s0,0,0,0Z"/>
              <path d="M12.2,6.8s0,0,0,0c0,0,0,0,0,0,0,0,0,0,0,0s0,0,0,0Z"/>
              <path d="M11.8,6.5s0,0,0,0c0,0,0,0,0,0s0,0,0,0,0,0,0,0Z"/>
              <path d="M11.5,6.1s0,0,0,0,0,0,0,0c0,0,0,0,0,0,0,0,0,0,0,0Z"/>
              <path d="M11.1,5.8s0,0,0,0c0,0,0,0,0,0,0,0,0,0,0,0s0,0,0,0Z"/>
              <path d="M10.8,5.5s0,0,0,0,0,0,0,0,0,0,0,0c0,0,0,0,0,0Z"/>
              <path d="M10.4,5.1s0,0,0,0,0,0,0,0c0,0,0,0,0,0,0,0,0,0,0,0Z"/>
              <path d="M10.1,4.8s0,0,0,0c0,0,0,0,0,0,0,0,0,0,0,0,0,0,0,0,0,0Z"/>
              <path d="M9.8,4.4s0,0,0,0c0,0,0,0,0,0,0,0,0,0,0,0,0,0,0,0,0,0Z"/>
              <path d="M9.4,4.1s0,0,0,0c0,0,0,0,0,0,0,0,0,0,0,0,0,0,0,0,0,0Z"/>
              <path d="M9.1,3.7s0,0,0,0c0,0,0,0,0,0,0,0,0,0,0,0,0,0,0,0,0,0Z"/>
              <path d="M8.7,3.4s0,0,0,0c0,0,0,0,0,0,0,0,0,0,0,0,0,0,0,0,0,0Z"/>
              <path d="M8.4,3.1s0,0,0,0c0,0,0,0,0,0,0,0,0,0,0,0,0,0,0,0,0,0Z"/>
              <path d="M8.1,2.7s0,0,0,0c0,0,0,0,0,0s0,0,0,0c0,0,0,0,0,0Z"/>
              <path d="M7.7,2.4s0,0,0,0c0,0,0,0,0,0s0,0,0,0c0,0,0,0,0,0Z"/>
              <path d="M7.4,2s0,0,0,0c0,0,0,0,0,0,0,0,0,0,0,0,0,0,0,0,0,0Z"/>
              <path d="M7,1.7s0,0,0,0c0,0,0,0,0,0,0,0,0,0,0,0,0,0,0,0,0,0Z"/>
              <path d="M6.7,1.4s0,0,0,0,0,0,0,0,0,0,0,0c0,0,0,0,0,0Z"/>
              <path d="M6.3,1s0,0,0,0c0,0,0,0,0,0,0,0,0,0,0,0s0,0,0,0Z"/>
              <path d="M6,.7s0,0,0,0c0,0,0,0,0,0,0,0,0,0,0,0s0,0,0,0Z"/>
              <path d="M5.7.3s0,0,0,0c0,0,0,0,0,0,0,0,0,0,0,0,0,0,0,0,0,0Z"/>
              <path d="M5.3,0s0,0,0,0c0,0,0,0,0,0,0,0,0,0,0,0,0,0,0,0,0,0Z"/>
              <path d="M13.7,7.7s0,0,0,0c0,0,0,0,0,0,0,0,0,0,0,0,0,0,0,0,0,0Z"/>
              <path d="M13.4,7.3s0,0,0,0c0,0,0,0,0,0,0,0,0,0,0,0,0,0,0,0,0,0Z"/>
              <path d="M13,7s0,0,0,0c0,0,0,0,0,0,0,0,0,0,0,0,0,0,0,0,0,0Z"/>
              <path d="M12.7,6.7s0,0,0,0c0,0,0,0,0,0,0,0,0,0,0,0,0,0,0,0,0,0Z"/>
              <path d="M12.3,6.3s0,0,0,0c0,0,0,0,0,0,0,0,0,0,0,0,0,0,0,0,0,0Z"/>
              <path d="M12,6s0,0,0,0c0,0,0,0,0,0,0,0,0,0,0,0,0,0,0,0,0,0Z"/>
              <path d="M11.6,5.6s0,0,0,0c0,0,0,0,0,0s0,0,0,0c0,0,0,0,0,0Z"/>
              <path d="M11.3,5.3s0,0,0,0,0,0,0,0c0,0,0,0,0,0,0,0,0,0,0,0Z"/>
              <path d="M11,4.9s0,0,0,0,0,0,0,0,0,0,0,0c0,0,0,0,0,0Z"/>
              <path d="M10.6,4.6s0,0,0,0c0,0,0,0,0,0,0,0,0,0,0,0,0,0,0,0,0,0Z"/>
              <path d="M10.3,4.3s0,0,0,0c0,0,0,0,0,0s0,0,0,0c0,0,0,0,0,0Z"/>
              <path d="M9.9,3.9s0,0,0,0c0,0,0,0,0,0,0,0,0,0,0,0,0,0,0,0,0,0Z"/>
              <path d="M9.6,3.6s0,0,0,0c0,0,0,0,0,0,0,0,0,0,0,0,0,0,0,0,0,0Z"/>
              <path d="M9.3,3.2s0,0,0,0c0,0,0,0,0,0,0,0,0,0,0,0,0,0,0,0,0,0Z"/>
              <path d="M8.9,2.9s0,0,0,0,0,0,0,0c0,0,0,0,0,0,0,0,0,0,0,0Z"/>
              <path d="M8.6,2.6s0,0,0,0c0,0,0,0,0,0,0,0,0,0,0,0,0,0,0,0,0,0Z"/>
              <path d="M8.2,2.2s0,0,0,0c0,0,0,0,0,0,0,0,0,0,0,0,0,0,0,0,0,0Z"/>
              <path d="M7.9,1.9s0,0,0,0c0,0,0,0,0,0,0,0,0,0,0,0,0,0,0,0,0,0Z"/>
              <path d="M7.5,1.5s0,0,0,0c0,0,0,0,0,0,0,0,0,0,0,0s0,0,0,0Z"/>
              <path d="M7.2,1.2s0,0,0,0c0,0,0,0,0,0,0,0,0,0,0,0s0,0,0,0Z"/>
              <path d="M6.9.8s0,0,0,0c0,0,0,0,0,0s0,0,0,0c0,0,0,0,0,0Z"/>
              <path d="M6.5.5s0,0,0,0c0,0,0,0,0,0,0,0,0,0,0,0s0,0,0,0Z"/>
              <path d="M6.2.2s0,0,0,0c0,0,0,0,0,0,0,0,0,0,0,0,0,0,0,0,0,0Z"/>
              <path d="M14.6,7.8s0,0,0,0,0,0,0,0c0,0,0,0,0,0,0,0,0,0,0,0Z"/>
              <path d="M14.2,7.5s0,0,0,0c0,0,0,0,0,0,0,0,0,0,0,0,0,0,0,0,0,0Z"/>
              <path d="M13.9,7.2s0,0,0,0c0,0,0,0,0,0,0,0,0,0,0,0,0,0,0,0,0,0Z"/>
              <path d="M13.5,6.8s0,0,0,0c0,0,0,0,0,0,0,0,0,0,0,0,0,0,0,0,0,0Z"/>
              <path d="M13.2,6.5s0,0,0,0c0,0,0,0,0,0,0,0,0,0,0,0,0,0,0,0,0,0Z"/>
              <path d="M12.8,6.1s0,0,0,0c0,0,0,0,0,0,0,0,0,0,0,0s0,0,0,0Z"/>
              <path d="M12.5,5.8s0,0,0,0c0,0,0,0,0,0,0,0,0,0,0,0,0,0,0,0,0,0Z"/>
              <path d="M12.2,5.5s0,0,0,0c0,0,0,0,0,0,0,0,0,0,0,0s0,0,0,0Z"/>
              <circle cx="11.8" cy="5.1" r="0"/>
              <circle cx="11.5" cy="4.8" r="0"/>
              <path d="M11.1,4.4s0,0,0,0c0,0,0,0,0,0s0,0,0,0c0,0,0,0,0,0Z"/>
              <path d="M10.8,4.1s0,0,0,0c0,0,0,0,0,0,0,0,0,0,0,0,0,0,0,0,0,0Z"/>
              <path d="M10.4,3.7s0,0,0,0,0,0,0,0,0,0,0,0c0,0,0,0,0,0Z"/>
              <path d="M10.1,3.4s0,0,0,0c0,0,0,0,0,0s0,0,0,0,0,0,0,0Z"/>
              <path d="M9.8,3.1s0,0,0,0c0,0,0,0,0,0,0,0,0,0,0,0s0,0,0,0Z"/>
              <path d="M9.4,2.7s0,0,0,0c0,0,0,0,0,0,0,0,0,0,0,0,0,0,0,0,0,0Z"/>
              <path d="M9.1,2.4s0,0,0,0c0,0,0,0,0,0,0,0,0,0,0,0,0,0,0,0,0,0Z"/>
              <path d="M8.7,2s0,0,0,0c0,0,0,0,0,0,0,0,0,0,0,0,0,0,0,0,0,0Z"/>
              <path d="M8.4,1.7s0,0,0,0c0,0,0,0,0,0s0,0,0,0c0,0,0,0,0,0Z"/>
              <path d="M8.1,1.4s0,0,0,0,0,0,0,0,0,0,0,0c0,0,0,0,0,0Z"/>
              <path d="M7.7,1s0,0,0,0,0,0,0,0,0,0,0,0c0,0,0,0,0,0Z"/>
              <path d="M7.4.7s0,0,0,0,0,0,0,0,0,0,0,0c0,0,0,0,0,0Z"/>
              <path d="M7,.3s0,0,0,0,0,0,0,0,0,0,0,0c0,0,0,0,0,0Z"/>
              <path d="M6.7,0s0,0,0,0c0,0,0,0,0,0s0,0,0,0,0,0,0,0Z"/>
              <path d="M15.1,7.7s0,0,0,0c0,0,0,0,0,0,0,0,0,0,0,0,0,0,0,0,0,0Z"/>
              <path d="M14.7,7.3s0,0,0,0c0,0,0,0,0,0,0,0,0,0,0,0,0,0,0,0,0,0Z"/>
              <path d="M14.4,7s0,0,0,0c0,0,0,0,0,0,0,0,0,0,0,0,0,0,0,0,0,0Z"/>
              <path d="M14,6.7s0,0,0,0c0,0,0,0,0,0,0,0,0,0,0,0,0,0,0,0,0,0Z"/>
              <path d="M13.7,6.3s0,0,0,0c0,0,0,0,0,0,0,0,0,0,0,0,0,0,0,0,0,0Z"/>
              <path d="M13.4,6s0,0,0,0c0,0,0,0,0,0,0,0,0,0,0,0s0,0,0,0Z"/>
              <path d="M13,5.6s0,0,0,0c0,0,0,0,0,0,0,0,0,0,0,0,0,0,0,0,0,0Z"/>
              <path d="M12.7,5.3s0,0,0,0c0,0,0,0,0,0,0,0,0,0,0,0s0,0,0,0Z"/>
              <path d="M12.3,4.9s0,0,0,0c0,0,0,0,0,0,0,0,0,0,0,0,0,0,0,0,0,0Z"/>
              <path d="M12,4.6s0,0,0,0c0,0,0,0,0,0,0,0,0,0,0,0,0,0,0,0,0,0Z"/>
              <path d="M11.6,4.3s0,0,0,0,0,0,0,0,0,0,0,0c0,0,0,0,0,0Z"/>
              <path d="M11.3,3.9s0,0,0,0,0,0,0,0c0,0,0,0,0,0,0,0,0,0,0,0Z"/>
              <path d="M11,3.6s0,0,0,0c0,0,0,0,0,0,0,0,0,0,0,0,0,0,0,0,0,0Z"/>
              <path d="M10.6,3.2s0,0,0,0c0,0,0,0,0,0,0,0,0,0,0,0,0,0,0,0,0,0Z"/>
              <path d="M10.3,2.9s0,0,0,0c0,0,0,0,0,0,0,0,0,0,0,0s0,0,0,0Z"/>
              <path d="M9.9,2.6s0,0,0,0c0,0,0,0,0,0,0,0,0,0,0,0,0,0,0,0,0,0Z"/>
              <path d="M9.6,2.2s0,0,0,0c0,0,0,0,0,0,0,0,0,0,0,0,0,0,0,0,0,0Z"/>
              <path d="M9.3,1.9s0,0,0,0c0,0,0,0,0,0,0,0,0,0,0,0,0,0,0,0,0,0Z"/>
              <path d="M8.9,1.5s0,0,0,0c0,0,0,0,0,0,0,0,0,0,0,0,0,0,0,0,0,0Z"/>
              <path d="M8.6,1.2s0,0,0,0c0,0,0,0,0,0,0,0,0,0,0,0,0,0,0,0,0,0Z"/>
              <path d="M8.2.8s0,0,0,0c0,0,0,0,0,0,0,0,0,0,0,0,0,0,0,0,0,0Z"/>
              <path d="M7.9.5s0,0,0,0c0,0,0,0,0,0,0,0,0,0,0,0s0,0,0,0Z"/>
              <path d="M7.5.2s0,0,0,0c0,0,0,0,0,0,0,0,0,0,0,0,0,0,0,0,0,0Z"/>
              <path d="M15.9,7.8s0,0,0,0c0,0,0,0,0,0,0,0,0,0,0,0,0,0,0,0,0,0Z"/>
              <path d="M15.6,7.5s0,0,0,0c0,0,0,0,0,0,0,0,0,0,0,0,0,0,0,0,0,0Z"/>
              <path d="M15.2,7.2s0,0,0,0c0,0,0,0,0,0s0,0,0,0c0,0,0,0,0,0Z"/>
              <path d="M14.9,6.8s0,0,0,0c0,0,0,0,0,0,0,0,0,0,0,0,0,0,0,0,0,0Z"/>
              <path d="M14.6,6.5s0,0,0,0c0,0,0,0,0,0s0,0,0,0,0,0,0,0Z"/>
              <path d="M14.2,6.1s0,0,0,0,0,0,0,0c0,0,0,0,0,0,0,0,0,0,0,0Z"/>
              <path d="M13.9,5.8s0,0,0,0c0,0,0,0,0,0,0,0,0,0,0,0,0,0,0,0,0,0Z"/>
              <path d="M13.5,5.5s0,0,0,0c0,0,0,0,0,0,0,0,0,0,0,0,0,0,0,0,0,0Z"/>
              <path d="M13.2,5.1s0,0,0,0c0,0,0,0,0,0,0,0,0,0,0,0s0,0,0,0Z"/>
              <path d="M12.8,4.8s0,0,0,0c0,0,0,0,0,0,0,0,0,0,0,0,0,0,0,0,0,0Z"/>
              <path d="M12.5,4.4s0,0,0,0c0,0,0,0,0,0,0,0,0,0,0,0,0,0,0,0,0,0Z"/>
              <path d="M12.2,4.1s0,0,0,0c0,0,0,0,0,0,0,0,0,0,0,0,0,0,0,0,0,0Z"/>
              <path d="M11.8,3.7s0,0,0,0c0,0,0,0,0,0,0,0,0,0,0,0,0,0,0,0,0,0Z"/>
              <path d="M11.5,3.4s0,0,0,0c0,0,0,0,0,0,0,0,0,0,0,0,0,0,0,0,0,0Z"/>
              <path d="M11.1,3.1s0,0,0,0,0,0,0,0c0,0,0,0,0,0,0,0,0,0,0,0Z"/>
              <path d="M10.8,2.7s0,0,0,0,0,0,0,0c0,0,0,0,0,0,0,0,0,0,0,0Z"/>
              <path d="M10.4,2.4s0,0,0,0c0,0,0,0,0,0,0,0,0,0,0,0s0,0,0,0Z"/>
              <path d="M10.1,2s0,0,0,0c0,0,0,0,0,0,0,0,0,0,0,0,0,0,0,0,0,0Z"/>
              <path d="M9.8,1.7s0,0,0,0c0,0,0,0,0,0,0,0,0,0,0,0,0,0,0,0,0,0Z"/>
              <path d="M9.4,1.4s0,0,0,0,0,0,0,0c0,0,0,0,0,0,0,0,0,0,0,0Z"/>
              <path d="M9.1,1s0,0,0,0c0,0,0,0,0,0,0,0,0,0,0,0,0,0,0,0,0,0Z"/>
              <path d="M8.7.7s0,0,0,0c0,0,0,0,0,0,0,0,0,0,0,0,0,0,0,0,0,0Z"/>
              <path d="M8.4.3s0,0,0,0c0,0,0,0,0,0,0,0,0,0,0,0,0,0,0,0,0,0Z"/>
              <path d="M8.1,0s0,0,0,0,0,0,0,0,0,0,0,0c0,0,0,0,0,0Z"/>
              <path d="M16.4,7.7s0,0,0,0,0,0,0,0,0,0,0,0c0,0,0,0,0,0Z"/>
              <path d="M16.1,7.3s0,0,0,0c0,0,0,0,0,0,0,0,0,0,0,0,0,0,0,0,0,0Z"/>
              <path d="M15.8,7s0,0,0,0c0,0,0,0,0,0,0,0,0,0,0,0,0,0,0,0,0,0Z"/>
              <path d="M15.4,6.6s0,0,0,0c0,0,0,0,0,0,0,0,0,0,0,0s0,0,0,0Z"/>
              <path d="M15.1,6.3s0,0,0,0c0,0,0,0,0,0,0,0,0,0,0,0,0,0,0,0,0,0Z"/>
              <path d="M14.7,6s0,0,0,0c0,0,0,0,0,0s0,0,0,0c0,0,0,0,0,0Z"/>
              <path d="M14.4,5.6s0,0,0,0c0,0,0,0,0,0,0,0,0,0,0,0s0,0,0,0Z"/>
              <path d="M14,5.3s0,0,0,0c0,0,0,0,0,0,0,0,0,0,0,0s0,0,0,0Z"/>
              <path d="M13.7,4.9s0,0,0,0c0,0,0,0,0,0,0,0,0,0,0,0s0,0,0,0Z"/>
              <path d="M13.4,4.6s0,0,0,0c0,0,0,0,0,0,0,0,0,0,0,0,0,0,0,0,0,0Z"/>
              <path d="M13,4.3s0,0,0,0c0,0,0,0,0,0,0,0,0,0,0,0,0,0,0,0,0,0Z"/>
              <path d="M12.7,3.9s0,0,0,0c0,0,0,0,0,0,0,0,0,0,0,0,0,0,0,0,0,0Z"/>
              <path d="M12.3,3.6s0,0,0,0c0,0,0,0,0,0,0,0,0,0,0,0,0,0,0,0,0,0Z"/>
              <path d="M12,3.2s0,0,0,0c0,0,0,0,0,0,0,0,0,0,0,0s0,0,0,0Z"/>
              <path d="M11.6,2.9s0,0,0,0c0,0,0,0,0,0,0,0,0,0,0,0s0,0,0,0Z"/>
              <path d="M11.3,2.5s0,0,0,0c0,0,0,0,0,0,0,0,0,0,0,0,0,0,0,0,0,0Z"/>
              <circle cx="11" cy="2.2" r="0"/>
              <path d="M10.6,1.9s0,0,0,0,0,0,0,0,0,0,0,0c0,0,0,0,0,0Z"/>
              <path d="M10.3,1.5s0,0,0,0c0,0,0,0,0,0,0,0,0,0,0,0s0,0,0,0Z"/>
              <path d="M9.9,1.2s0,0,0,0c0,0,0,0,0,0,0,0,0,0,0,0s0,0,0,0Z"/>
              <path d="M9.6.8s0,0,0,0c0,0,0,0,0,0,0,0,0,0,0,0,0,0,0,0,0,0Z"/>
              <path d="M9.3.5s0,0,0,0,0,0,0,0c0,0,0,0,0,0,0,0,0,0,0,0Z"/>
              <path d="M8.9.2s0,0,0,0c0,0,0,0,0,0s0,0,0,0c0,0,0,0,0,0Z"/>
              <path d="M17.3,7.8s0,0,0,0c0,0,0,0,0,0s0,0,0,0c0,0,0,0,0,0Z"/>
              <circle cx="16.9" cy="7.5" r="0"/>
              <path d="M16.6,7.2s0,0,0,0c0,0,0,0,0,0,0,0,0,0,0,0,0,0,0,0,0,0Z"/>
              <path d="M16.3,6.8s0,0,0,0c0,0,0,0,0,0,0,0,0,0,0,0,0,0,0,0,0,0Z"/>
              <path d="M15.9,6.5s0,0,0,0c0,0,0,0,0,0,0,0,0,0,0,0,0,0,0,0,0,0Z"/>
              <path d="M15.6,6.1s0,0,0,0c0,0,0,0,0,0,0,0,0,0,0,0,0,0,0,0,0,0Z"/>
              <path d="M15.2,5.8s0,0,0,0,0,0,0,0c0,0,0,0,0,0,0,0,0,0,0,0Z"/>
              <path d="M14.9,5.5s0,0,0,0,0,0,0,0c0,0,0,0,0,0,0,0,0,0,0,0Z"/>
              <path d="M14.6,5.1s0,0,0,0c0,0,0,0,0,0,0,0,0,0,0,0,0,0,0,0,0,0Z"/>
              <path d="M14.2,4.8s0,0,0,0c0,0,0,0,0,0,0,0,0,0,0,0,0,0,0,0,0,0Z"/>
              <path d="M13.9,4.4s0,0,0,0c0,0,0,0,0,0,0,0,0,0,0,0,0,0,0,0,0,0Z"/>
              <path d="M13.5,4.1s0,0,0,0c0,0,0,0,0,0,0,0,0,0,0,0,0,0,0,0,0,0Z"/>
              <path d="M13.2,3.7s0,0,0,0c0,0,0,0,0,0,0,0,0,0,0,0s0,0,0,0Z"/>
              <path d="M12.8,3.4s0,0,0,0c0,0,0,0,0,0,0,0,0,0,0,0s0,0,0,0Z"/>
              <path d="M12.5,3.1s0,0,0,0c0,0,0,0,0,0s0,0,0,0c0,0,0,0,0,0Z"/>
              <path d="M12.2,2.7s0,0,0,0c0,0,0,0,0,0,0,0,0,0,0,0s0,0,0,0Z"/>
              <circle cx="11.8" cy="2.4" r="0"/>
              <path d="M11.5,2s0,0,0,0c0,0,0,0,0,0s0,0,0,0,0,0,0,0Z"/>
              <path d="M11.1,1.7s0,0,0,0c0,0,0,0,0,0,0,0,0,0,0,0,0,0,0,0,0,0Z"/>
              <path d="M10.8,1.4s0,0,0,0,0,0,0,0,0,0,0,0c0,0,0,0,0,0Z"/>
              <path d="M10.5,1s0,0,0,0,0,0,0,0,0,0,0,0c0,0,0,0,0,0Z"/>
              <path d="M10.1.7s0,0,0,0c0,0,0,0,0,0,0,0,0,0,0,0,0,0,0,0,0,0Z"/>
              <path d="M9.8.3s0,0,0,0c0,0,0,0,0,0,0,0,0,0,0,0s0,0,0,0Z"/>
              <path d="M9.4,0s0,0,0,0c0,0,0,0,0,0,0,0,0,0,0,0,0,0,0,0,0,0Z"/>
              <path d="M17.8,7.7s0,0,0,0c0,0,0,0,0,0,0,0,0,0,0,0s0,0,0,0Z"/>
              <path d="M17.5,7.3s0,0,0,0c0,0,0,0,0,0,0,0,0,0,0,0s0,0,0,0Z"/>
              <path d="M17.1,7s0,0,0,0,0,0,0,0c0,0,0,0,0,0,0,0,0,0,0,0Z"/>
              <path d="M16.8,6.6s0,0,0,0c0,0,0,0,0,0,0,0,0,0,0,0,0,0,0,0,0,0Z"/>
              <path d="M16.4,6.3s0,0,0,0c0,0,0,0,0,0,0,0,0,0,0,0,0,0,0,0,0,0Z"/>
              <path d="M16.1,6s0,0,0,0c0,0,0,0,0,0,0,0,0,0,0,0s0,0,0,0Z"/>
              <path d="M15.8,5.6s0,0,0,0c0,0,0,0,0,0,0,0,0,0,0,0,0,0,0,0,0,0Z"/>
              <path d="M15.4,5.3s0,0,0,0c0,0,0,0,0,0,0,0,0,0,0,0s0,0,0,0Z"/>
              <path d="M15.1,4.9s0,0,0,0,0,0,0,0c0,0,0,0,0,0,0,0,0,0,0,0Z"/>
              <path d="M14.7,4.6s0,0,0,0c0,0,0,0,0,0,0,0,0,0,0,0s0,0,0,0Z"/>
              <path d="M14.4,4.3s0,0,0,0c0,0,0,0,0,0,0,0,0,0,0,0s0,0,0,0Z"/>
              <path d="M14,3.9s0,0,0,0c0,0,0,0,0,0,0,0,0,0,0,0s0,0,0,0Z"/>
              <path d="M13.7,3.6s0,0,0,0c0,0,0,0,0,0,0,0,0,0,0,0,0,0,0,0,0,0Z"/>
              <path d="M13.4,3.2s0,0,0,0c0,0,0,0,0,0,0,0,0,0,0,0s0,0,0,0Z"/>
              <path d="M13,2.9s0,0,0,0c0,0,0,0,0,0,0,0,0,0,0,0,0,0,0,0,0,0Z"/>
              <path d="M12.7,2.5s0,0,0,0c0,0,0,0,0,0,0,0,0,0,0,0s0,0,0,0Z"/>
              <circle cx="12.3" cy="2.2" r="0"/>
              <path d="M12,1.9s0,0,0,0c0,0,0,0,0,0s0,0,0,0c0,0,0,0,0,0Z"/>
              <path d="M11.6,1.5s0,0,0,0c0,0,0,0,0,0,0,0,0,0,0,0,0,0,0,0,0,0Z"/>
              <path d="M11.3,1.2s0,0,0,0c0,0,0,0,0,0s0,0,0,0,0,0,0,0Z"/>
              <path d="M11,.8s0,0,0,0,0,0,0,0c0,0,0,0,0,0,0,0,0,0,0,0Z"/>
              <path d="M10.6.5s0,0,0,0c0,0,0,0,0,0s0,0,0,0c0,0,0,0,0,0Z"/>
              <path d="M10.3.2s0,0,0,0c0,0,0,0,0,0,0,0,0,0,0,0,0,0,0,0,0,0Z"/>
              <path d="M18.7,7.8s0,0,0,0c0,0,0,0,0,0,0,0,0,0,0,0,0,0,0,0,0,0Z"/>
              <path d="M18.3,7.5s0,0,0,0c0,0,0,0,0,0,0,0,0,0,0,0,0,0,0,0,0,0Z"/>
              <path d="M18,7.2s0,0,0,0c0,0,0,0,0,0,0,0,0,0,0,0,0,0,0,0,0,0Z"/>
              <path d="M17.6,6.8s0,0,0,0c0,0,0,0,0,0,0,0,0,0,0,0s0,0,0,0Z"/>
              <path d="M17.3,6.5s0,0,0,0c0,0,0,0,0,0,0,0,0,0,0,0,0,0,0,0,0,0Z"/>
              <path d="M17,6.1s0,0,0,0,0,0,0,0,0,0,0,0c0,0,0,0,0,0Z"/>
              <path d="M16.6,5.8s0,0,0,0c0,0,0,0,0,0,0,0,0,0,0,0,0,0,0,0,0,0Z"/>
              <path d="M16.3,5.5s0,0,0,0c0,0,0,0,0,0,0,0,0,0,0,0,0,0,0,0,0,0Z"/>
              <path d="M15.9,5.1s0,0,0,0,0,0,0,0c0,0,0,0,0,0,0,0,0,0,0,0Z"/>
              <path d="M15.6,4.8s0,0,0,0c0,0,0,0,0,0,0,0,0,0,0,0,0,0,0,0,0,0Z"/>
              <path d="M15.2,4.4s0,0,0,0c0,0,0,0,0,0,0,0,0,0,0,0s0,0,0,0Z"/>
              <path d="M14.9,4.1s0,0,0,0c0,0,0,0,0,0,0,0,0,0,0,0s0,0,0,0Z"/>
              <path d="M14.6,3.7s0,0,0,0c0,0,0,0,0,0,0,0,0,0,0,0,0,0,0,0,0,0Z"/>
              <path d="M14.2,3.4s0,0,0,0,0,0,0,0,0,0,0,0c0,0,0,0,0,0Z"/>
              <path d="M13.9,3.1s0,0,0,0c0,0,0,0,0,0,0,0,0,0,0,0s0,0,0,0Z"/>
              <path d="M13.5,2.7s0,0,0,0c0,0,0,0,0,0,0,0,0,0,0,0s0,0,0,0Z"/>
              <path d="M13.2,2.4s0,0,0,0c0,0,0,0,0,0,0,0,0,0,0,0,0,0,0,0,0,0Z"/>
              <path d="M12.8,2s0,0,0,0c0,0,0,0,0,0,0,0,0,0,0,0,0,0,0,0,0,0Z"/>
              <path d="M12.5,1.7s0,0,0,0c0,0,0,0,0,0,0,0,0,0,0,0,0,0,0,0,0,0Z"/>
              <path d="M12.2,1.4s0,0,0,0,0,0,0,0c0,0,0,0,0,0,0,0,0,0,0,0Z"/>
              <path d="M11.8,1s0,0,0,0c0,0,0,0,0,0s0,0,0,0c0,0,0,0,0,0Z"/>
              <path d="M11.5.7s0,0,0,0c0,0,0,0,0,0,0,0,0,0,0,0,0,0,0,0,0,0Z"/>
              <path d="M11.1.3s0,0,0,0c0,0,0,0,0,0,0,0,0,0,0,0,0,0,0,0,0,0Z"/>
              <path d="M10.8,0s0,0,0,0c0,0,0,0,0,0s0,0,0,0,0,0,0,0Z"/>
              <path d="M19.5,8s0,0,0,0c0,0,0,0,0,0,0,0,0,0,0,0,0,0,0,0,0,0Z"/>
              <path d="M19.2,7.7s0,0,0,0c0,0,0,0,0,0,0,0,0,0,0,0,0,0,0,0,0,0Z"/>
              <path d="M18.8,7.3s0,0,0,0c0,0,0,0,0,0,0,0,0,0,0,0s0,0,0,0Z"/>
              <path d="M18.5,7s0,0,0,0c0,0,0,0,0,0,0,0,0,0,0,0,0,0,0,0,0,0Z"/>
              <path d="M18.2,6.6s0,0,0,0c0,0,0,0,0,0,0,0,0,0,0,0,0,0,0,0,0,0Z"/>
              <path d="M17.8,6.3s0,0,0,0,0,0,0,0,0,0,0,0c0,0,0,0,0,0Z"/>
              <circle cx="17.4" cy="6" r="0"/>
              <path d="M17.1,5.6s0,0,0,0c0,0,0,0,0,0,0,0,0,0,0,0,0,0,0,0,0,0Z"/>
              <path d="M16.8,5.3s0,0,0,0c0,0,0,0,0,0s0,0,0,0,0,0,0,0Z"/>
              <path d="M16.4,4.9s0,0,0,0,0,0,0,0,0,0,0,0c0,0,0,0,0,0Z"/>
              <path d="M16.1,4.6s0,0,0,0c0,0,0,0,0,0,0,0,0,0,0,0,0,0,0,0,0,0Z"/>
              <path d="M15.8,4.3s0,0,0,0c0,0,0,0,0,0,0,0,0,0,0,0,0,0,0,0,0,0Z"/>
              <path d="M15.4,3.9s0,0,0,0c0,0,0,0,0,0,0,0,0,0,0,0s0,0,0,0Z"/>
              <path d="M15.1,3.6s0,0,0,0c0,0,0,0,0,0,0,0,0,0,0,0s0,0,0,0Z"/>
              <path d="M14.7,3.2s0,0,0,0c0,0,0,0,0,0,0,0,0,0,0,0s0,0,0,0Z"/>
              <path d="M14.4,2.9s0,0,0,0c0,0,0,0,0,0,0,0,0,0,0,0,0,0,0,0,0,0Z"/>
              <path d="M14,2.5s0,0,0,0c0,0,0,0,0,0,0,0,0,0,0,0,0,0,0,0,0,0Z"/>
              <path d="M13.7,2.2s0,0,0,0c0,0,0,0,0,0,0,0,0,0,0,0,0,0,0,0,0,0Z"/>
              <path d="M13.4,1.9s0,0,0,0c0,0,0,0,0,0,0,0,0,0,0,0s0,0,0,0Z"/>
              <path d="M13,1.5s0,0,0,0c0,0,0,0,0,0,0,0,0,0,0,0,0,0,0,0,0,0Z"/>
              <path d="M12.7,1.2s0,0,0,0c0,0,0,0,0,0,0,0,0,0,0,0,0,0,0,0,0,0Z"/>
              <path d="M12.3.8s0,0,0,0,0,0,0,0c0,0,0,0,0,0,0,0,0,0,0,0Z"/>
              <path d="M12,.5s0,0,0,0c0,0,0,0,0,0,0,0,0,0,0,0,0,0,0,0,0,0Z"/>
              <path d="M11.6.2s0,0,0,0c0,0,0,0,0,0,0,0,0,0,0,0,0,0,0,0,0,0Z"/>
              <path d="M20,7.8s0,0,0,0,0,0,0,0c0,0,0,0,0,0,0,0,0,0,0,0Z"/>
              <path d="M19.7,7.5s0,0,0,0c0,0,0,0,0,0,0,0,0,0,0,0s0,0,0,0Z"/>
              <path d="M19.4,7.2s0,0,0,0c0,0,0,0,0,0,0,0,0,0,0,0,0,0,0,0,0,0Z"/>
              <path d="M19,6.8s0,0,0,0c0,0,0,0,0,0,0,0,0,0,0,0,0,0,0,0,0,0Z"/>
              <path d="M18.7,6.5s0,0,0,0c0,0,0,0,0,0,0,0,0,0,0,0,0,0,0,0,0,0Z"/>
              <path d="M18.3,6.1s0,0,0,0c0,0,0,0,0,0s0,0,0,0c0,0,0,0,0,0Z"/>
              <path d="M18,5.8s0,0,0,0c0,0,0,0,0,0,0,0,0,0,0,0,0,0,0,0,0,0Z"/>
              <path d="M17.6,5.4s0,0,0,0c0,0,0,0,0,0,0,0,0,0,0,0,0,0,0,0,0,0Z"/>
              <circle cx="17.3" cy="5.1" r="0"/>
              <path d="M17,4.8s0,0,0,0c0,0,0,0,0,0s0,0,0,0c0,0,0,0,0,0Z"/>
              <path d="M16.6,4.4s0,0,0,0c0,0,0,0,0,0,0,0,0,0,0,0,0,0,0,0,0,0Z"/>
              <path d="M16.3,4.1s0,0,0,0c0,0,0,0,0,0,0,0,0,0,0,0,0,0,0,0,0,0Z"/>
              <path d="M15.9,3.7s0,0,0,0c0,0,0,0,0,0,0,0,0,0,0,0,0,0,0,0,0,0Z"/>
              <path d="M15.6,3.4s0,0,0,0c0,0,0,0,0,0,0,0,0,0,0,0s0,0,0,0Z"/>
              <path d="M15.2,3.1s0,0,0,0c0,0,0,0,0,0,0,0,0,0,0,0,0,0,0,0,0,0Z"/>
              <path d="M14.9,2.7s0,0,0,0c0,0,0,0,0,0,0,0,0,0,0,0s0,0,0,0Z"/>
              <path d="M14.6,2.4s0,0,0,0c0,0,0,0,0,0,0,0,0,0,0,0,0,0,0,0,0,0Z"/>
              <path d="M14.2,2s0,0,0,0c0,0,0,0,0,0,0,0,0,0,0,0,0,0,0,0,0,0Z"/>
              <path d="M13.9,1.7s0,0,0,0,0,0,0,0,0,0,0,0c0,0,0,0,0,0Z"/>
              <path d="M13.5,1.3s0,0,0,0,0,0,0,0,0,0,0,0c0,0,0,0,0,0Z"/>
              <path d="M13.2,1s0,0,0,0c0,0,0,0,0,0s0,0,0,0c0,0,0,0,0,0Z"/>
              <path d="M12.8.7s0,0,0,0c0,0,0,0,0,0,0,0,0,0,0,0,0,0,0,0,0,0Z"/>
              <path d="M12.5.3s0,0,0,0c0,0,0,0,0,0,0,0,0,0,0,0s0,0,0,0Z"/>
              <path d="M12.2,0s0,0,0,0c0,0,0,0,0,0s0,0,0,0c0,0,0,0,0,0Z"/>
              <path d="M20.9,8s0,0,0,0c0,0,0,0,0,0s0,0,0,0c0,0,0,0,0,0Z"/>
              <path d="M20.6,7.7s0,0,0,0,0,0,0,0c0,0,0,0,0,0s0,0,0,0Z"/>
              <path d="M20.2,7.3s0,0,0,0c0,0,0,0,0,0s0,0,0,0c0,0,0,0,0,0Z"/>
              <path d="M19.9,7s0,0,0,0,0,0,0,0c0,0,0,0,0,0,0,0,0,0,0,0Z"/>
              <path d="M19.5,6.6s0,0,0,0c0,0,0,0,0,0,0,0,0,0,0,0,0,0,0,0,0,0Z"/>
              <path d="M19.2,6.3s0,0,0,0c0,0,0,0,0,0,0,0,0,0,0,0,0,0,0,0,0,0Z"/>
              <path d="M18.8,6s0,0,0,0c0,0,0,0,0,0,0,0,0,0,0,0,0,0,0,0,0,0Z"/>
              <path d="M18.5,5.6s0,0,0,0c0,0,0,0,0,0,0,0,0,0,0,0,0,0,0,0,0,0Z"/>
              <path d="M18.2,5.3s0,0,0,0c0,0,0,0,0,0,0,0,0,0,0,0,0,0,0,0,0,0Z"/>
              <path d="M17.8,4.9s0,0,0,0c0,0,0,0,0,0,0,0,0,0,0,0,0,0,0,0,0,0Z"/>
              <path d="M17.5,4.6s0,0,0,0c0,0,0,0,0,0,0,0,0,0,0,0,0,0,0,0,0,0Z"/>
              <path d="M17.1,4.2s0,0,0,0c0,0,0,0,0,0,0,0,0,0,0,0,0,0,0,0,0,0Z"/>
              <path d="M16.8,3.9s0,0,0,0c0,0,0,0,0,0,0,0,0,0,0,0,0,0,0,0,0,0Z"/>
              <path d="M16.4,3.6s0,0,0,0c0,0,0,0,0,0,0,0,0,0,0,0s0,0,0,0Z"/>
              <path d="M16.1,3.2s0,0,0,0c0,0,0,0,0,0,0,0,0,0,0,0,0,0,0,0,0,0Z"/>
              <path d="M15.8,2.9s0,0,0,0c0,0,0,0,0,0,0,0,0,0,0,0,0,0,0,0,0,0Z"/>
              <path d="M15.4,2.5s0,0,0,0c0,0,0,0,0,0,0,0,0,0,0,0,0,0,0,0,0,0Z"/>
              <path d="M15.1,2.2s0,0,0,0c0,0,0,0,0,0,0,0,0,0,0,0,0,0,0,0,0,0Z"/>
              <path d="M14.7,1.9s0,0,0,0c0,0,0,0,0,0,0,0,0,0,0,0s0,0,0,0Z"/>
              <path d="M14.4,1.5s0,0,0,0c0,0,0,0,0,0,0,0,0,0,0,0s0,0,0,0Z"/>
              <path d="M14,1.2s0,0,0,0c0,0,0,0,0,0,0,0,0,0,0,0,0,0,0,0,0,0Z"/>
              <path d="M13.7.8s0,0,0,0c0,0,0,0,0,0,0,0,0,0,0,0s0,0,0,0Z"/>
              <path d="M13.4.5s0,0,0,0c0,0,0,0,0,0,0,0,0,0,0,0s0,0,0,0Z"/>
              <path d="M13,.2s0,0,0,0c0,0,0,0,0,0s0,0,0,0c0,0,0,0,0,0Z"/>
              <path d="M21.1,7.5s0,0,0,0c0,0,0,0,0,0,0,0,0,0,0,0,0,0,0,0,0,0Z"/>
              <path d="M20.7,7.1s0,0,0,0c0,0,0,0,0,0,0,0,0,0,0,0s0,0,0,0Z"/>
              <path d="M20.4,6.8s0,0,0,0c0,0,0,0,0,0s0,0,0,0c0,0,0,0,0,0Z"/>
              <path d="M20,6.5s0,0,0,0c0,0,0,0,0,0s0,0,0,0c0,0,0,0,0,0Z"/>
              <path d="M19.7,6.1s0,0,0,0c0,0,0,0,0,0s0,0,0,0c0,0,0,0,0,0Z"/>
              <circle cx="19.3" cy="5.8" r="0"/>
              <path d="M19,5.4s0,0,0,0,0,0,0,0c0,0,0,0,0,0,0,0,0,0,0,0Z"/>
              <path d="M18.7,5.1s0,0,0,0c0,0,0,0,0,0,0,0,0,0,0,0,0,0,0,0,0,0Z"/>
              <path d="M18.3,4.8s0,0,0,0c0,0,0,0,0,0,0,0,0,0,0,0s0,0,0,0Z"/>
              <path d="M18,4.4s0,0,0,0c0,0,0,0,0,0,0,0,0,0,0,0s0,0,0,0Z"/>
              <path d="M17.6,4.1s0,0,0,0c0,0,0,0,0,0,0,0,0,0,0,0s0,0,0,0Z"/>
              <path d="M17.3,3.7s0,0,0,0c0,0,0,0,0,0,0,0,0,0,0,0,0,0,0,0,0,0Z"/>
              <path d="M17,3.4s0,0,0,0c0,0,0,0,0,0,0,0,0,0,0,0,0,0,0,0,0,0Z"/>
              <path d="M16.6,3.1s0,0,0,0c0,0,0,0,0,0,0,0,0,0,0,0,0,0,0,0,0,0Z"/>
              <path d="M16.3,2.7s0,0,0,0c0,0,0,0,0,0,0,0,0,0,0,0s0,0,0,0Z"/>
              <circle cx="15.9" cy="2.4" r="0"/>
              <path d="M15.6,2s0,0,0,0,0,0,0,0,0,0,0,0c0,0,0,0,0,0Z"/>
              <path d="M15.2,1.7s0,0,0,0,0,0,0,0,0,0,0,0c0,0,0,0,0,0Z"/>
              <path d="M14.9,1.3s0,0,0,0c0,0,0,0,0,0s0,0,0,0c0,0,0,0,0,0Z"/>
              <path d="M14.6,1s0,0,0,0c0,0,0,0,0,0,0,0,0,0,0,0,0,0,0,0,0,0Z"/>
              <path d="M14.2.7s0,0,0,0c0,0,0,0,0,0,0,0,0,0,0,0,0,0,0,0,0,0Z"/>
              <path d="M13.9.3s0,0,0,0c0,0,0,0,0,0,0,0,0,0,0,0,0,0,0,0,0,0Z"/>
              <path d="M13.5,0s0,0,0,0,0,0,0,0c0,0,0,0,0,0,0,0,0,0,0,0Z"/>
              <path d="M20.9,6.6s0,0,0,0c0,0,0,0,0,0s0,0,0,0c0,0,0,0,0,0Z"/>
              <path d="M20.6,6.3s0,0,0,0c0,0,0,0,0,0,0,0,0,0,0,0s0,0,0,0Z"/>
              <path d="M20.2,5.9s0,0,0,0,0,0,0,0c0,0,0,0,0,0,0,0,0,0,0,0Z"/>
              <path d="M19.9,5.6s0,0,0,0c0,0,0,0,0,0,0,0,0,0,0,0,0,0,0,0,0,0Z"/>
              <path d="M19.5,5.3s0,0,0,0,0,0,0,0,0,0,0,0c0,0,0,0,0,0Z"/>
              <circle cx="19.2" cy="5" r="0"/>
              <path d="M18.8,4.6s0,0,0,0,0,0,0,0c0,0,0,0,0,0,0,0,0,0,0,0Z"/>
              <path d="M18.5,4.2s0,0,0,0c0,0,0,0,0,0s0,0,0,0,0,0,0,0Z"/>
              <path d="M18.2,3.9s0,0,0,0c0,0,0,0,0,0,0,0,0,0,0,0,0,0,0,0,0,0Z"/>
              <path d="M17.8,3.6s0,0,0,0c0,0,0,0,0,0,0,0,0,0,0,0s0,0,0,0Z"/>
              <path d="M17.5,3.2s0,0,0,0c0,0,0,0,0,0,0,0,0,0,0,0s0,0,0,0Z"/>
              <path d="M17.1,2.9s0,0,0,0,0,0,0,0,0,0,0,0c0,0,0,0,0,0Z"/>
              <path d="M16.8,2.5s0,0,0,0c0,0,0,0,0,0,0,0,0,0,0,0s0,0,0,0Z"/>
              <path d="M16.4,2.2s0,0,0,0c0,0,0,0,0,0,0,0,0,0,0,0,0,0,0,0,0,0Z"/>
              <path d="M16.1,1.9s0,0,0,0,0,0,0,0c0,0,0,0,0,0,0,0,0,0,0,0Z"/>
              <path d="M15.8,1.5s0,0,0,0,0,0,0,0c0,0,0,0,0,0,0,0,0,0,0,0Z"/>
              <path d="M15.4,1.2s0,0,0,0c0,0,0,0,0,0s0,0,0,0,0,0,0,0Z"/>
              <circle cx="15.1" cy=".9" r="0"/>
              <path d="M14.7.5s0,0,0,0c0,0,0,0,0,0,0,0,0,0,0,0,0,0,0,0,0,0Z"/>
              <path d="M14.4.1s0,0,0,0c0,0,0,0,0,0s0,0,0,0,0,0,0,0Z"/>
              <path d="M21.1,6.1s0,0,0,0,0,0,0,0c0,0,0,0,0,0s0,0,0,0Z"/>
              <path d="M20.7,5.8s0,0,0,0c0,0,0,0,0,0,0,0,0,0,0,0s0,0,0,0Z"/>
              <path d="M20.4,5.4s0,0,0,0c0,0,0,0,0,0,0,0,0,0,0,0s0,0,0,0Z"/>
              <path d="M20,5.1s0,0,0,0,0,0,0,0c0,0,0,0,0,0,0,0,0,0,0,0Z"/>
              <path d="M19.7,4.8s0,0,0,0c0,0,0,0,0,0,0,0,0,0,0,0,0,0,0,0,0,0Z"/>
              <path d="M19.4,4.4s0,0,0,0c0,0,0,0,0,0,0,0,0,0,0,0,0,0,0,0,0,0Z"/>
              <path d="M19,4.1s0,0,0,0c0,0,0,0,0,0,0,0,0,0,0,0s0,0,0,0Z"/>
              <path d="M18.7,3.7s0,0,0,0c0,0,0,0,0,0,0,0,0,0,0,0,0,0,0,0,0,0Z"/>
              <path d="M18.3,3.4s0,0,0,0,0,0,0,0c0,0,0,0,0,0s0,0,0,0Z"/>
              <path d="M18,3s0,0,0,0c0,0,0,0,0,0,0,0,0,0,0,0,0,0,0,0,0,0Z"/>
              <path d="M17.6,2.7s0,0,0,0c0,0,0,0,0,0,0,0,0,0,0,0,0,0,0,0,0,0Z"/>
              <path d="M17.3,2.4s0,0,0,0c0,0,0,0,0,0,0,0,0,0,0,0s0,0,0,0Z"/>
              <path d="M17,2s0,0,0,0,0,0,0,0,0,0,0,0c0,0,0,0,0,0Z"/>
              <path d="M16.6,1.7s0,0,0,0c0,0,0,0,0,0s0,0,0,0,0,0,0,0Z"/>
              <path d="M16.3,1.3s0,0,0,0c0,0,0,0,0,0,0,0,0,0,0,0,0,0,0,0,0,0Z"/>
              <path d="M15.9,1s0,0,0,0c0,0,0,0,0,0,0,0,0,0,0,0s0,0,0,0Z"/>
              <path d="M15.6.7s0,0,0,0,0,0,0,0,0,0,0,0c0,0,0,0,0,0Z"/>
              <circle cx="15.2" cy=".3" r="0"/>
              <path d="M14.9,0s0,0,0,0c0,0,0,0,0,0,0,0,0,0,0,0,0,0,0,0,0,0Z"/>
              <path d="M20.9,5.3s0,0,0,0c0,0,0,0,0,0s0,0,0,0c0,0,0,0,0,0Z"/>
              <path d="M20.6,4.9s0,0,0,0c0,0,0,0,0,0,0,0,0,0,0,0,0,0,0,0,0,0Z"/>
              <path d="M20.2,4.6s0,0,0,0c0,0,0,0,0,0,0,0,0,0,0,0,0,0,0,0,0,0Z"/>
              <path d="M19.9,4.2s0,0,0,0c0,0,0,0,0,0,0,0,0,0,0,0,0,0,0,0,0,0Z"/>
              <path d="M19.5,3.9s0,0,0,0c0,0,0,0,0,0,0,0,0,0,0,0,0,0,0,0,0,0Z"/>
              <path d="M19.2,3.6s0,0,0,0c0,0,0,0,0,0,0,0,0,0,0,0,0,0,0,0,0,0Z"/>
              <path d="M18.8,3.2s0,0,0,0c0,0,0,0,0,0,0,0,0,0,0,0,0,0,0,0,0,0Z"/>
              <path d="M18.5,2.9s0,0,0,0c0,0,0,0,0,0,0,0,0,0,0,0,0,0,0,0,0,0Z"/>
              <path d="M18.2,2.5s0,0,0,0c0,0,0,0,0,0,0,0,0,0,0,0,0,0,0,0,0,0Z"/>
              <path d="M17.8,2.2s0,0,0,0c0,0,0,0,0,0,0,0,0,0,0,0,0,0,0,0,0,0Z"/>
              <path d="M17.5,1.9s0,0,0,0,0,0,0,0,0,0,0,0c0,0,0,0,0,0Z"/>
              <path d="M17.1,1.5s0,0,0,0c0,0,0,0,0,0,0,0,0,0,0,0,0,0,0,0,0,0Z"/>
              <path d="M16.8,1.2s0,0,0,0,0,0,0,0,0,0,0,0c0,0,0,0,0,0Z"/>
              <path d="M16.4.8s0,0,0,0c0,0,0,0,0,0,0,0,0,0,0,0,0,0,0,0,0,0Z"/>
              <path d="M16.1.5s0,0,0,0c0,0,0,0,0,0s0,0,0,0,0,0,0,0Z"/>
              <path d="M15.8.1s0,0,0,0c0,0,0,0,0,0s0,0,0,0,0,0,0,0Z"/>
              <path d="M21.1,4.7s0,0,0,0c0,0,0,0,0,0,0,0,0,0,0,0,0,0,0,0,0,0Z"/>
              <path d="M20.7,4.4s0,0,0,0c0,0,0,0,0,0,0,0,0,0,0,0,0,0,0,0,0,0Z"/>
              <path d="M20.4,4.1s0,0,0,0c0,0,0,0,0,0,0,0,0,0,0,0,0,0,0,0,0,0Z"/>
              <path d="M20,3.7s0,0,0,0c0,0,0,0,0,0,0,0,0,0,0,0,0,0,0,0,0,0Z"/>
              <path d="M19.7,3.4s0,0,0,0c0,0,0,0,0,0,0,0,0,0,0,0,0,0,0,0,0,0Z"/>
              <path d="M19.4,3s0,0,0,0c0,0,0,0,0,0,0,0,0,0,0,0,0,0,0,0,0,0Z"/>
              <path d="M19,2.7s0,0,0,0,0,0,0,0c0,0,0,0,0,0,0,0,0,0,0,0Z"/>
              <path d="M18.7,2.4s0,0,0,0c0,0,0,0,0,0,0,0,0,0,0,0,0,0,0,0,0,0Z"/>
              <path d="M18.3,2s0,0,0,0c0,0,0,0,0,0,0,0,0,0,0,0,0,0,0,0,0,0Z"/>
              <path d="M18,1.7s0,0,0,0c0,0,0,0,0,0,0,0,0,0,0,0,0,0,0,0,0,0Z"/>
              <path d="M17.6,1.3s0,0,0,0,0,0,0,0c0,0,0,0,0,0,0,0,0,0,0,0Z"/>
              <path d="M17.3,1s0,0,0,0,0,0,0,0c0,0,0,0,0,0,0,0,0,0,0,0Z"/>
              <path d="M17,.7s0,0,0,0c0,0,0,0,0,0,0,0,0,0,0,0,0,0,0,0,0,0Z"/>
              <path d="M16.6.3s0,0,0,0c0,0,0,0,0,0,0,0,0,0,0,0,0,0,0,0,0,0Z"/>
              <circle cx="16.3" cy="0" r="0"/>
              <path d="M20.9,3.9s0,0,0,0c0,0,0,0,0,0,0,0,0,0,0,0,0,0,0,0,0,0Z"/>
              <path d="M20.6,3.5s0,0,0,0c0,0,0,0,0,0,0,0,0,0,0,0,0,0,0,0,0,0Z"/>
              <path d="M20.2,3.2s0,0,0,0c0,0,0,0,0,0,0,0,0,0,0,0,0,0,0,0,0,0Z"/>
              <path d="M19.9,2.9s0,0,0,0c0,0,0,0,0,0,0,0,0,0,0,0,0,0,0,0,0,0Z"/>
              <path d="M19.5,2.5s0,0,0,0,0,0,0,0,0,0,0,0c0,0,0,0,0,0Z"/>
              <path d="M19.2,2.2s0,0,0,0c0,0,0,0,0,0s0,0,0,0,0,0,0,0Z"/>
              <circle cx="18.8" cy="1.9" r="0"/>
              <path d="M18.5,1.5s0,0,0,0,0,0,0,0,0,0,0,0c0,0,0,0,0,0Z"/>
              <path d="M18.2,1.2s0,0,0,0c0,0,0,0,0,0,0,0,0,0,0,0,0,0,0,0,0,0Z"/>
              <path d="M17.8.8s0,0,0,0c0,0,0,0,0,0,0,0,0,0,0,0,0,0,0,0,0,0Z"/>
              <path d="M17.5.5s0,0,0,0,0,0,0,0c0,0,0,0,0,0s0,0,0,0Z"/>
              <path d="M17.1.1s0,0,0,0,0,0,0,0,0,0,0,0c0,0,0,0,0,0Z"/>
              <path d="M21.1,3.4s0,0,0,0c0,0,0,0,0,0s0,0,0,0,0,0,0,0Z"/>
              <path d="M20.7,3s0,0,0,0,0,0,0,0c0,0,0,0,0,0,0,0,0,0,0,0Z"/>
              <path d="M20.4,2.7s0,0,0,0,0,0,0,0c0,0,0,0,0,0s0,0,0,0Z"/>
              <path d="M20.1,2.4s0,0,0,0,0,0,0,0c0,0,0,0,0,0s0,0,0,0Z"/>
              <path d="M19.7,2s0,0,0,0c0,0,0,0,0,0,0,0,0,0,0,0,0,0,0,0,0,0Z"/>
              <path d="M19.4,1.7s0,0,0,0c0,0,0,0,0,0,0,0,0,0,0,0s0,0,0,0Z"/>
              <path d="M19,1.3s0,0,0,0,0,0,0,0c0,0,0,0,0,0s0,0,0,0Z"/>
              <path d="M18.7,1s0,0,0,0,0,0,0,0c0,0,0,0,0,0,0,0,0,0,0,0Z"/>
              <path d="M18.3.6s0,0,0,0c0,0,0,0,0,0,0,0,0,0,0,0s0,0,0,0Z"/>
              <path d="M18,.3s0,0,0,0,0,0,0,0,0,0,0,0c0,0,0,0,0,0Z"/>
              <path d="M17.7,0s0,0,0,0,0,0,0,0c0,0,0,0,0,0,0,0,0,0,0,0Z"/>
              <path d="M20.9,2.5s0,0,0,0c0,0,0,0,0,0s0,0,0,0,0,0,0,0Z"/>
              <path d="M20.6,2.2s0,0,0,0c0,0,0,0,0,0s0,0,0,0c0,0,0,0,0,0Z"/>
              <circle cx="20.2" cy="1.9" r="0"/>
              <path d="M19.9,1.5s0,0,0,0c0,0,0,0,0,0,0,0,0,0,0,0s0,0,0,0Z"/>
              <path d="M19.5,1.2s0,0,0,0,0,0,0,0c0,0,0,0,0,0,0,0,0,0,0,0Z"/>
              <path d="M19.2.8s0,0,0,0c0,0,0,0,0,0s0,0,0,0c0,0,0,0,0,0Z"/>
              <path d="M18.9.5s0,0,0,0c0,0,0,0,0,0,0,0,0,0,0,0s0,0,0,0Z"/>
              <path d="M18.5.1s0,0,0,0c0,0,0,0,0,0,0,0,0,0,0,0,0,0,0,0,0,0Z"/>
              <path d="M21.1,2s0,0,0,0c0,0,0,0,0,0,0,0,0,0,0,0,0,0,0,0,0,0Z"/>
              <path d="M20.7,1.7s0,0,0,0,0,0,0,0c0,0,0,0,0,0,0,0,0,0,0,0Z"/>
              <path d="M20.4,1.3s0,0,0,0c0,0,0,0,0,0,0,0,0,0,0,0,0,0,0,0,0,0Z"/>
              <path d="M20.1,1s0,0,0,0c0,0,0,0,0,0s0,0,0,0,0,0,0,0Z"/>
              <path d="M19.7.6s0,0,0,0c0,0,0,0,0,0,0,0,0,0,0,0,0,0,0,0,0,0Z"/>
              <path d="M19.4.3s0,0,0,0c0,0,0,0,0,0,0,0,0,0,0,0s0,0,0,0Z"/>
              <path d="M19,0s0,0,0,0c0,0,0,0,0,0,0,0,0,0,0,0,0,0,0,0,0,0Z"/>
              <path d="M20.9,1.1s0,0,0,0c0,0,0,0,0,0,0,0,0,0,0,0s0,0,0,0Z"/>
              <path d="M20.6.8s0,0,0,0c0,0,0,0,0,0,0,0,0,0,0,0,0,0,0,0,0,0Z"/>
              <path d="M20.2.5s0,0,0,0c0,0,0,0,0,0,0,0,0,0,0,0s0,0,0,0Z"/>
              <path d="M19.9.1s0,0,0,0c0,0,0,0,0,0,0,0,0,0,0,0,0,0,0,0,0,0Z"/>
              <circle cx="21" cy=".7" r="0"/>
              <path d="M20.7.3s0,0-.1,0c0,0,0,0,0,.1,0,0,0,0,.1,0,0,0,0,0,0-.1Z"/>
              <path d="M20.4,0s0,0-.1,0c0,0,0,0,0,.1,0,0,0,0,.1,0,0,0,0,0,0-.1Z"/>
            </g>
          </g>
        </g>
      </g>
    </g>
  </g>
</svg>